<svg xmlns="http://www.w3.org/2000/svg" viewBox="0 0 229.87 110.6"><defs><style>.cls-1{fill:#e03127;}.cls-2,.cls-3{fill:#231f20;}.cls-2{fill-rule:evenodd;}</style></defs><title>OTGO-logotip</title><g id="Layer_2" data-name="Layer 2"><g id="Layer_1-2" data-name="Layer 1"><rect class="cls-1" x="99.35" y="80.39" width="30.21" height="30.21"/><path class="cls-2" d="M119,66.39V72.5h-.32V66.39Zm-2.5-.52h2v.27l-2.14,0a2.18,2.18,0,0,0-2.06-1,2.33,2.33,0,0,0-2,.88,2.37,2.37,0,0,1,2.13-1A2.5,2.5,0,0,1,116.52,65.87Zm-2.07-11a.67.67,0,0,1,.67.64h-.23a.57.57,0,0,0-.56-.46.56.56,0,0,0-.55.43A.67.67,0,0,1,114.45,54.91Zm13.24,3h-.87v-.28h.55l-.18-1.11Zm.13,2.53h-.28V58.94a.6.6,0,0,0-.89-.58.73.73,0,0,1,.45-.16.72.72,0,0,1,.72.72ZM127,56.13a.13.13,0,1,1,.26,0,.13.13,0,1,1-.26,0ZM101.9,57.87H101v-.28h.55l-.18-1.11ZM102,60.4h-.28V58.94a.62.62,0,0,0-.6-.66.6.6,0,0,0-.29.08.73.73,0,0,1,.46-.16.71.71,0,0,1,.71.72Zm-.78-4.27a.13.13,0,1,1,.26,0,.13.13,0,0,1-.26,0Zm23.88,8.59h-.25V63.56a.29.29,0,0,0-.29-.31.28.28,0,0,0-.13,0,.39.39,0,0,1,.27-.11.4.4,0,0,1,.4.39Zm-.47-1.83a.12.12,0,0,1,.12-.12.12.12,0,0,1,.13.12.13.13,0,0,1-.13.12A.13.13,0,0,1,124.66,62.89Zm-1.51,1.83h-.25V63.56a.28.28,0,0,0-.28-.31.32.32,0,0,0-.14,0,.4.4,0,0,1,.67.28Zm-.46-1.83a.12.12,0,0,1,.24,0,.12.12,0,0,1-.24,0Zm1.32-.64h-.22V61.7a.25.25,0,0,0-.24-.27.21.21,0,0,0-.12,0,.35.35,0,0,1,.24-.1.34.34,0,0,1,.34.34Zm-3,2.47h-.25V63.56a.28.28,0,0,0-.28-.31.32.32,0,0,0-.14,0,.4.4,0,0,1,.67.28Zm-.46-1.83a.12.12,0,0,1,.12-.12.12.12,0,0,1,.12.12.12.12,0,0,1-.12.12A.13.13,0,0,1,120.52,62.89Zm1.17-.64h-.22V61.7a.25.25,0,0,0-.25-.27.27.27,0,0,0-.12,0,.37.37,0,0,1,.24-.1.35.35,0,0,1,.35.34Zm-14.13,0h-.22V61.7a.25.25,0,0,0-.25-.27.27.27,0,0,0-.12,0,.35.35,0,0,1,.59.24Zm-2.29,0h-.22V61.7a.25.25,0,0,0-.24-.27.21.21,0,0,0-.12,0,.33.33,0,0,1,.24-.1.34.34,0,0,1,.34.34Zm-.9,2.47h-.25V63.56a.28.28,0,0,0-.28-.31.35.35,0,0,0-.14,0,.41.41,0,0,1,.28-.11.39.39,0,0,1,.39.39Zm-.46-1.83a.12.12,0,0,1,.12-.12.12.12,0,0,1,.12.12A.12.12,0,0,1,104,63,.13.13,0,0,1,103.91,62.89Zm2.61,1.83h-.25V63.56a.29.29,0,0,0-.42-.28.39.39,0,0,1,.27-.11.4.4,0,0,1,.4.39Zm-.46-1.83a.12.12,0,0,1,.12-.12.12.12,0,0,1,.12.12.13.13,0,0,1-.12.12A.12.12,0,0,1,106.06,62.89Zm2.43,1.83h-.25V63.56a.28.28,0,0,0-.28-.31.32.32,0,0,0-.14,0,.39.39,0,0,1,.28-.11.4.4,0,0,1,.39.39ZM108,62.89a.12.12,0,1,1,.24,0,.12.12,0,1,1-.24,0Zm-6.34,9.59h-.27V70.76a.27.27,0,0,0-.27-.29.26.26,0,0,0-.19.08.39.39,0,0,1,.73.2Zm2.32,0h-.27V70.76a.27.27,0,0,0-.27-.29.28.28,0,0,0-.2.08.43.43,0,0,1,.35-.2.4.4,0,0,1,.39.4Zm2.3,0H106V70.76a.27.27,0,0,0-.27-.29.28.28,0,0,0-.2.08.43.43,0,0,1,.35-.2.4.4,0,0,1,.39.4Zm2.27,0h-.27V70.76a.27.27,0,0,0-.26-.29.28.28,0,0,0-.2.08.42.42,0,0,1,.34-.2.39.39,0,0,1,.39.4Zm19.11,0h-.26V70.76a.26.26,0,0,0-.26-.29.28.28,0,0,0-.2.08.42.42,0,0,1,.34-.2.39.39,0,0,1,.39.4Zm-2.27,0h-.27V70.76a.27.27,0,0,0-.27-.29.28.28,0,0,0-.2.08.43.43,0,0,1,.35-.2.4.4,0,0,1,.39.4Zm-2.3,0h-.27V70.76a.27.27,0,0,0-.27-.29.28.28,0,0,0-.2.08.43.43,0,0,1,.35-.2.4.4,0,0,1,.39.4Zm-2.32,0h-.27V70.76a.27.27,0,0,0-.27-.29.26.26,0,0,0-.19.08.4.4,0,0,1,.34-.2.4.4,0,0,1,.39.4Zm-8.87,0h-.27V70.76a.26.26,0,0,0-.26-.29.28.28,0,0,0-.2.08.42.42,0,0,1,.34-.2.4.4,0,0,1,.4.4Zm3,0v-1.7a.63.63,0,0,0-.61-.68.61.61,0,0,0-.55.33.77.77,0,0,1,1.49.27v1.78Zm2.86,0h-.27V70.76a.27.27,0,0,0-.27-.29.28.28,0,0,0-.2.08.43.43,0,0,1,.35-.2.4.4,0,0,1,.39.4ZM112,78.79h-.3V75.43a.6.6,0,0,0-.56-.68.53.53,0,0,0-.4.19.67.67,0,0,1,.57-.32.73.73,0,0,1,.69.76Zm5.89,0h-.3V75.43a.61.61,0,0,0-.56-.68.53.53,0,0,0-.4.19.67.67,0,0,1,.57-.32.73.73,0,0,1,.69.76Zm-2.53,0H115V75.25a.81.81,0,0,0-1.33-.69,1,1,0,0,1,.76-.37.94.94,0,0,1,.94.94ZM116,62l0-.18h.37l-.1-.51.29.69Zm.14-1a.12.12,0,1,1,.12.12A.12.12,0,0,1,116.16,60.94Zm-16,2.27h-.93V63h.61l-.24-1.71Zm0,2.42h-.27V63.82l-.71-.27h1Zm29.36-2.42h-.93V63h.61L129,61.24Zm0,2.42h-.28V63.82l-.7-.27h1ZM119,63.22h-.69V63h.38l-.19-1.12Zm0,2.16h-.28V63.85l-.47-.14H119Zm-8.38-2.16h-.69V63h.39l-.19-1.12Zm0,2.16h-.27V63.85l-.47-.14h.74Zm17.09,13.2h-.28V77.5l-.51-.1h.79Zm-2.3,0h-.28V77.5l-.5-.1h.78Zm-2.28,0h-.28V77.5l-.51-.1h.79Zm-2.35,0h-.28V77.5l-.5-.1h.78Zm-12.19,0h-.28V77.5l-.5-.1h.78Zm-2.29,0H106V77.5l-.51-.1h.79Zm-2.29,0h-.28V77.5l-.5-.1H104Zm-2.34,0h-.29V77.5l-.5-.1h.79Zm26-2.58h-.28V74.52l-.51-.1h.79Zm-2.3,0h-.28V74.52l-.5-.1h.78Zm-2.28,0h-.28V74.52l-.51-.1h.79Zm-2.35,0h-.28V74.52l-.5-.1h.78ZM108.6,76h-.28V74.52l-.5-.1h.78Zm-2.29,0H106V74.52l-.51-.1h.79ZM104,76h-.28V74.52l-.5-.1H104Zm-2.34,0h-.29V74.52l-.5-.1h.79Zm26-7.08h-.28V67.44l-.51-.1h.79Zm-2.3,0h-.28V67.44l-.5-.1h.78Zm-2.28,0h-.28V67.44l-.51-.1h.79Zm-2.35,0h-.28V67.44l-.5-.1h.78Zm-3,0h-.28V67.44l-.51-.1h.79Zm-5.87,0h-.28V67.44l-.51-.1h.79Zm-3.3,0h-.28V67.44l-.5-.1h.78Zm-2.29,0H106V67.44l-.51-.1h.79Zm-2.29,0h-.28V67.44l-.5-.1H104Zm24.7,4.71-9.42-.33h9.41Zm-28-9.89.89-2.92h9.06V61h-8.92Zm-.32,9.56h8.93v.23Zm9.09,5.49V73.9h.33v4.89Zm-9.09-12.72h8.93v.23Zm9.09,6.41V66.65h.34v5.83Zm-7.85-3.56h-.29V67.44l-.5-.1h.79Zm10.62-7,0-.18h.37l-.1-.51.3.69Zm.13-1a.12.12,0,1,1,.12.12A.12.12,0,0,1,112.43,60.94Zm1.65.21,0-.23h.47l-.15-.66.38.89Zm.23-1.29a.14.14,0,1,1,.14.14A.14.14,0,0,1,114.31,59.86Zm-1.76,2.87,1.9-1.22,2,1.22v2h-.34V62.8l-1.62-1.17Zm15.4.85L127,61l-8.68-.22h8.9l1,2.79ZM110.24,73.3h8.29v.28ZM119,78.79h-.33V73.9H119ZM99.34,72.48v-6h.18v6ZM111.65,59.1h5.29l1,4.13h-.28l-1-3.95Zm1.78-1.52h2l1.48,1.2h-.39l-1.29-1.06Zm.93-3V49.21h.18v5.38Zm.69,2.67V56.13l-1.49-.27h1.77v1.4ZM113.53,63l.92-.67.65.44a.77.77,0,0,1,.33.61v1h-.29v-1a.68.68,0,0,0-.27-.53l-.56-.37Zm.24,4a.92.92,0,0,1,.69-.32.83.83,0,0,1,.74.4v1.89h-.34V67.14a.61.61,0,0,0-.6-.36A.82.82,0,0,0,113.77,66.94Zm6.38-.87h8.94v.27Zm9.08,7.21V66.65h.34v6.63Zm.34,6.13H119.18v-.28h10V73.9h.34Zm-11,0h-.42v-.28h.42Zm-1.06,0h-1.92v-.28h1.92Zm-2.57,0h-2.7v-.28h2.7Zm-3.34,0H110v-.28h1.54Zm-2.18,0h-10V73.59h.19v5.54h9.84Z"/><path class="cls-3" d="M68.68,6V2.7a3.11,3.11,0,0,0-.14-1.2c-.1-.18-.34-.28-.72-.28q-.33,0-.33-.15c0-.12.08-.17.25-.17s.31,0,.55,0,.42,0,.55,0a4.67,4.67,0,0,0,.47,0,4.67,4.67,0,0,1,.47,0C70,.9,70,1,70,1.05s-.13.17-.39.17-.5.1-.57.31a2.51,2.51,0,0,0-.06.71V6a4.27,4.27,0,0,1-.09,1.05,1.79,1.79,0,0,1-1.14,1.22,4.45,4.45,0,0,1-1.72.3c-1.67,0-2.63-.48-2.89-1.45A4.78,4.78,0,0,1,63.09,6V2.22A2.26,2.26,0,0,0,63,1.43q-.12-.21-.72-.21-.3,0-.3-.15c0-.12.07-.17.21-.17s.38,0,.68,0,.52,0,.68,0,.38,0,.69,0,.54,0,.69,0,.21,0,.21.17-.11.15-.32.15c-.39,0-.62.07-.7.21a2.15,2.15,0,0,0-.08.79V5.64a4.17,4.17,0,0,0,.26,1.86,2.12,2.12,0,0,0,2,.79,2.66,2.66,0,0,0,2-.65,1.5,1.5,0,0,0,.39-.76A5.4,5.4,0,0,0,68.68,6Z"/><path class="cls-3" d="M71.32,7.22V4.94a3.42,3.42,0,0,0,0-.61.4.4,0,0,0-.44-.27h-.16c-.09,0-.14,0-.14-.09s.09-.15.28-.21a2,2,0,0,0,1-.63C71.92,3,72,3,72.05,3s.11.07.11.2V4a1.4,1.4,0,0,0,.37-.26A2.56,2.56,0,0,1,74.15,3a1.71,1.71,0,0,1,1.44.66,1.63,1.63,0,0,1,.32.8,5.9,5.9,0,0,1,0,.88V7.23a3.58,3.58,0,0,0,0,.67c.06.2.23.31.52.33s.34.07.34.15,0,.13-.15.13l-.57,0-.57,0-.58,0-.57,0c-.12,0-.17,0-.17-.12s.11-.15.34-.17a.55.55,0,0,0,.52-.33,6.21,6.21,0,0,0,0-.67V5.29a2.28,2.28,0,0,0-.22-1.2,1.28,1.28,0,0,0-1.14-.55,1.62,1.62,0,0,0-1.2.52,1.54,1.54,0,0,0-.39,1.12v2a3.58,3.58,0,0,0,0,.67c.06.19.24.3.52.33s.34.07.34.16,0,.13-.15.13l-.57,0-.57,0-.57,0-.58,0c-.11,0-.17,0-.17-.12s.11-.15.34-.17.46-.14.52-.33A4.18,4.18,0,0,0,71.32,7.22Z"/><path class="cls-3" d="M79.06,3.17V7.23a6.21,6.21,0,0,0,0,.67.53.53,0,0,0,.53.33c.22,0,.34.07.34.15s0,.13-.15.13l-.57,0-.57,0-.58,0-.58,0c-.11,0-.17,0-.17-.12s.12-.15.34-.17a.56.56,0,0,0,.53-.33,6.21,6.21,0,0,0,0-.67V4.94a3.42,3.42,0,0,0,0-.61.41.41,0,0,0-.44-.27h-.16q-.15,0-.15-.09c0-.08.1-.15.28-.21a2,2,0,0,0,1-.63C78.82,3,78.89,3,79,3S79.06,3,79.06,3.17Zm-.43-1.25c-.34,0-.52-.2-.52-.59a.64.64,0,0,1,.15-.42.5.5,0,0,1,.4-.18A.44.44,0,0,1,79,.9a.68.68,0,0,1,.14.41C79.17,1.71,79,1.92,78.63,1.92Z"/><path class="cls-3" d="M83.17,7.36l1.44-3.14a1.46,1.46,0,0,0,.16-.52q0-.33-.48-.33c-.22,0-.33,0-.33-.13s.06-.11.19-.11h1.78c.11,0,.16,0,.16.08s-.1.14-.3.16a.93.93,0,0,0-.64.45c0,.08-.17.33-.36.74L83.05,8.31a1.12,1.12,0,0,1-.08.17c0,.08-.08.11-.12.11s-.09,0-.11-.11l-.08-.15L80.9,4.08a1.91,1.91,0,0,0-.25-.51.68.68,0,0,0-.5-.2c-.15,0-.23-.05-.23-.13s.06-.11.18-.11h2.2c.15,0,.23,0,.23.13s-.11.11-.34.11-.45.12-.45.34a2.42,2.42,0,0,0,.2.61Z"/><path class="cls-3" d="M91.31,5.15H87.63a1.34,1.34,0,0,0-.39,0c-.07,0-.11.16-.11.34a2.59,2.59,0,0,0,.65,1.79,2.14,2.14,0,0,0,1.71.75A2.31,2.31,0,0,0,91,7.49a1.3,1.3,0,0,1,.27-.21c.06,0,.09,0,.09.1s-.15.28-.47.54A2.88,2.88,0,0,1,89,8.59a2.65,2.65,0,0,1-2-.8,2.72,2.72,0,0,1-.8-2,2.63,2.63,0,0,1,.91-2.06A3.13,3.13,0,0,1,89.28,3,2.12,2.12,0,0,1,91,3.72a1.89,1.89,0,0,1,.43,1.22Q91.46,5.15,91.31,5.15Zm-3.67-.28h1a10.13,10.13,0,0,0,1.09,0c.51-.07.76-.26.76-.55a1,1,0,0,0-.43-.82,1.65,1.65,0,0,0-.94-.27A1.88,1.88,0,0,0,87.53,4a1.3,1.3,0,0,0-.3.71C87.23,4.81,87.37,4.87,87.64,4.87Z"/><path class="cls-3" d="M93,7.22V4.94a3.42,3.42,0,0,0,0-.61.4.4,0,0,0-.44-.27H92.4c-.09,0-.14,0-.14-.09s.09-.15.28-.21a2,2,0,0,0,1-.63c.09-.11.17-.16.22-.16s.11.07.11.2v.59c0,.17,0,.26.06.26s.11-.09.25-.26A1.61,1.61,0,0,1,95.37,3a.81.81,0,0,1,.48.16.49.49,0,0,1,.21.43q0,.48-.51.48a.6.6,0,0,1-.42-.23c-.15-.15-.27-.23-.36-.23s-.41.15-.62.44a1.55,1.55,0,0,0-.25.58,4,4,0,0,0,0,.64V7.23a3.58,3.58,0,0,0,0,.67c.06.2.23.31.52.33s.34.07.34.15-.05.13-.15.13l-.57,0-.57,0-.58,0-.57,0c-.12,0-.17,0-.17-.12s.11-.15.34-.17.46-.14.52-.33A4.18,4.18,0,0,0,93,7.22Z"/><path class="cls-3" d="M101,3.57,97.87,7.78c-.13.13-.2.23-.2.3s.14.1.43.1h1.05a3,3,0,0,0,1.1-.13,1.28,1.28,0,0,0,.66-.83c.06-.16.12-.24.17-.24s.13.15.11.46l0,.6v.27a.17.17,0,0,1-.18.15H96.6c-.12,0-.18-.06-.18-.13a.37.37,0,0,1,.09-.16l.09-.11,3.22-4.27a.61.61,0,0,0,.15-.27q0-.09-.21-.09H98.55a3,3,0,0,0-1,.1A1.32,1.32,0,0,0,97,4c-.09.13-.16.19-.21.19s-.11,0-.11-.09a1.45,1.45,0,0,1,.09-.28l.31-.93c.08-.22.16-.34.22-.34s.12.07.12.2a.3.3,0,0,0,.2.31,1.23,1.23,0,0,0,.42,0h3c.15,0,.22,0,.22.08A.86.86,0,0,1,101,3.57Z"/><path class="cls-3" d="M103.83,5.94l.93-.44a.87.87,0,0,0,.38-.24.8.8,0,0,0,.07-.43V4.29a1.75,1.75,0,0,0-.11-.76.65.65,0,0,0-.66-.33,1.48,1.48,0,0,0-1.39,1,.79.79,0,0,1-.14.26.39.39,0,0,1-.2.18,1.32,1.32,0,0,1-.52.16c-.11,0-.16-.05-.16-.15a1.23,1.23,0,0,1,.51-.86A3.2,3.2,0,0,1,104.71,3c.79,0,1.24.24,1.33.73a4.53,4.53,0,0,1,0,.47V7c0,.65.14,1,.42,1a1.11,1.11,0,0,0,.55-.3.08.08,0,0,1,.09.09c0,.09-.1.21-.3.38a1.51,1.51,0,0,1-.86.35c-.22,0-.49-.28-.82-.85l-.32.24a2.66,2.66,0,0,1-1.64.67,1.29,1.29,0,0,1-.8-.25.81.81,0,0,1-.34-.7,1.4,1.4,0,0,1,.64-1.06A7.13,7.13,0,0,1,103.83,5.94ZM105,5.63l-1.1.56c-.63.32-1,.7-1,1.14a.64.64,0,0,0,.24.53,1,1,0,0,0,.6.19,1.51,1.51,0,0,0,1.13-.49,1.26,1.26,0,0,0,.3-.91V5.92c0-.22,0-.34-.08-.34Z"/><path class="cls-3" d="M114.09,4.21l-1,2.44a2.59,2.59,0,0,0-.25.92A.64.64,0,0,0,113,8a.58.58,0,0,0,.45.19,2.94,2.94,0,0,0,2.1-1.42,4,4,0,0,0,1-2.39.91.91,0,0,0-.14-.49,1.2,1.2,0,0,1-.23-.6.65.65,0,0,1,.12-.36.34.34,0,0,1,.29-.17q.25,0,.39.33a1.41,1.41,0,0,1,.11.54,5.36,5.36,0,0,1-1.27,3.16,3.64,3.64,0,0,1-2.76,1.8q-1.11,0-1.11-1a4,4,0,0,1,.34-1.19l.88-2.16a2.72,2.72,0,0,0,.18-.53c0-.13-.06-.19-.17-.19s-.33.14-.61.42a3.46,3.46,0,0,0-.51.59c0,.07-.09.11-.14.11s-.08,0-.08-.1a.76.76,0,0,1,.16-.29,4.21,4.21,0,0,1,.81-.83,1.74,1.74,0,0,1,1-.49.38.38,0,0,1,.43.44A2.66,2.66,0,0,1,114.09,4.21Z"/><path class="cls-3" d="M125.61,7.16l-.28.91c-.06.19-.11.31-.16.34a1,1,0,0,1-.39.05h-4.65c-.09,0-.14-.05-.14-.09s.11-.19.32-.2A1.16,1.16,0,0,0,121,8a1.81,1.81,0,0,0,.41-.81l1.56-5.1a2.61,2.61,0,0,0,.14-.58q0-.33-.42-.33h-.17q-.3,0-.3-.21c0-.07.12-.1.37-.09l.56,0h.57c.15,0,.39,0,.72,0s.57,0,.71,0,.23,0,.23.14-.12.16-.36.16a.93.93,0,0,0-.77.24,2.12,2.12,0,0,0-.3.68L122.26,7.5a2,2,0,0,0-.09.41.22.22,0,0,0,.16.24h.33A6.33,6.33,0,0,0,124.21,8a1.79,1.79,0,0,0,1.1-1c.1-.21.19-.32.25-.32s.13,0,.13.12A1.41,1.41,0,0,1,125.61,7.16Z"/><path class="cls-3" d="M128.81,4.22l-1.39,4.57a4.64,4.64,0,0,1-.94,1.89,2,2,0,0,1-1.46.64,1.33,1.33,0,0,1-.61-.13.52.52,0,0,1-.33-.47.41.41,0,0,1,.12-.3.38.38,0,0,1,.3-.13c.14,0,.3.13.47.38s.33.37.49.37a.54.54,0,0,0,.5-.35,2.77,2.77,0,0,0,.23-.63L128,4.22a4.08,4.08,0,0,0,.11-.4c0-.14-.05-.22-.15-.22s-.39.18-.72.53a5.19,5.19,0,0,1-.53.53c-.06,0-.08,0-.08-.1s.2-.39.6-.77c.63-.59,1.11-.89,1.42-.89s.38.15.38.45A4.45,4.45,0,0,1,128.81,4.22Zm.86-2.9a.89.89,0,0,1-.18.53.53.53,0,0,1-.45.27c-.26,0-.38-.15-.38-.46a.83.83,0,0,1,.18-.5.53.53,0,0,1,.44-.26Q129.67.9,129.67,1.32Z"/><path class="cls-3" d="M134.31,5.37l-.09.11c-.39.57-.65.93-.76,1.07a8.22,8.22,0,0,1-.88,1,3.45,3.45,0,0,1-2.09,1.1c-.35,0-.52-.21-.52-.64a3.57,3.57,0,0,1,.23-1l.94-2.76a2.26,2.26,0,0,0,.14-.47c0-.14-.06-.2-.17-.2s-.59.31-1,.94c-.13.18-.21.27-.27.27s-.06,0-.06-.07a1.2,1.2,0,0,1,.28-.53c.16-.22.29-.38.37-.47a2.12,2.12,0,0,1,1.34-.8c.26,0,.39.18.39.53a2.81,2.81,0,0,1-.18.8l-1,2.91a2.1,2.1,0,0,0-.14.58.3.3,0,0,0,.33.34,1.94,1.94,0,0,0,1-.55,7.75,7.75,0,0,0,.87-.85,8.85,8.85,0,0,0,1.81-3.25c0-.14.09-.28.13-.43s.28-.12.62-.08c.11,0,.17.06.17.13a1.45,1.45,0,0,1-.07.29l-1.18,3.84a2.23,2.23,0,0,0-.11.51c0,.16.06.24.19.24s.42-.15.72-.47a4,4,0,0,0,.56-.73c.07-.09.12-.13.15-.13a.07.07,0,0,1,.08.08c0,.16-.21.47-.62.94a3.66,3.66,0,0,1-.75.65,1.69,1.69,0,0,1-.91.36q-.33,0-.33-.45a3.85,3.85,0,0,1,.22-1.07Z"/><path class="cls-3" d="M137.53,5.77l1.29-4.22A3.3,3.3,0,0,0,139,.94c0-.18-.11-.28-.32-.28s-.43,0-.43-.11.13-.2.38-.2a2.36,2.36,0,0,0,1.25-.3A.17.17,0,0,1,140,0c.07,0,.11,0,.11.12l-1.68,5.55a7.34,7.34,0,0,1,1.35-1.75,2.86,2.86,0,0,1,1.83-1,1.07,1.07,0,0,1,1,.53,2,2,0,0,1,.29,1.09,4,4,0,0,1-1.22,2.83,3.78,3.78,0,0,1-2.77,1.26,1.74,1.74,0,0,1-1.14-.34,1.3,1.3,0,0,1-.47-1.07A6.21,6.21,0,0,1,137.53,5.77Zm4.37-1.25c0-.71-.22-1.06-.68-1.06s-1.31.55-2.13,1.65a4.73,4.73,0,0,0-1.2,2.51c0,.52.31.78.91.78A2.8,2.8,0,0,0,141,7,4.19,4.19,0,0,0,141.9,4.52Z"/><path class="cls-3" d="M143.39,7.06l1.68-5.47a2.57,2.57,0,0,0,.12-.5q0-.33-.48-.3h-.19c-.1,0-.15,0-.15-.13s.13-.14.37-.15a2.49,2.49,0,0,0,1.4-.46l.1,0c.07,0,.1,0,.1.11a2,2,0,0,1-.06.29l-2.09,6.77a2.73,2.73,0,0,0-.12.49c0,.14.06.21.17.21s.32-.16.59-.47a5,5,0,0,0,.47-.64c.06-.1.12-.16.18-.16s.06,0,.06.09a2,2,0,0,1-.51.86c-.57.7-1.06,1.06-1.48,1.06-.25,0-.38-.16-.38-.48A4,4,0,0,1,143.39,7.06Z"/><path class="cls-3" d="M148.76,4.22l-1.39,4.57a4.64,4.64,0,0,1-.94,1.89,2,2,0,0,1-1.46.64,1.31,1.31,0,0,1-.61-.13.52.52,0,0,1-.33-.47.41.41,0,0,1,.12-.3.38.38,0,0,1,.3-.13c.14,0,.29.13.47.38s.33.37.48.37a.55.55,0,0,0,.51-.35,2.77,2.77,0,0,0,.23-.63l1.79-5.84a4.08,4.08,0,0,0,.11-.4c0-.14,0-.22-.15-.22s-.39.18-.72.53a6.85,6.85,0,0,1-.53.53c-.06,0-.08,0-.08-.1s.2-.39.6-.77c.63-.59,1.11-.89,1.42-.89s.38.15.38.45A4.45,4.45,0,0,1,148.76,4.22Zm.86-2.9a.89.89,0,0,1-.18.53.54.54,0,0,1-.45.27c-.26,0-.38-.15-.38-.46a.83.83,0,0,1,.18-.5.53.53,0,0,1,.44-.26Q149.62.9,149.62,1.32Z"/><path class="cls-3" d="M154.64,3.33l0-.12a1.66,1.66,0,0,1,.15-.35.54.54,0,0,1,.35-.08c.25,0,.33,0,.23,0,.12,0,.19.06.19.13a1.48,1.48,0,0,1-.06.24l-1.25,4.1a2.09,2.09,0,0,0-.11.41c0,.11.05.17.13.17s.32-.13.57-.41a3.15,3.15,0,0,0,.45-.58c.09-.14.15-.22.21-.22s.08,0,.08.1-.21.54-.64,1a2.23,2.23,0,0,1-1.45.9c-.21,0-.32-.12-.32-.36a2.77,2.77,0,0,1,.12-.68l.74-2.4a13.09,13.09,0,0,1-1.58,2.13,3.3,3.3,0,0,1-2.15,1.31.84.84,0,0,1-.74-.41,1.5,1.5,0,0,1-.22-.84,3.56,3.56,0,0,1,.44-1.61,5.67,5.67,0,0,1,1-1.38,4.06,4.06,0,0,1,2.94-1.47A1.1,1.1,0,0,1,154.64,3.33Zm-.18.43q0-.63-.78-.63a3.14,3.14,0,0,0-2.26,1.52,6,6,0,0,0-.73,1.23,3.28,3.28,0,0,0-.37,1.34.91.91,0,0,0,.13.5.47.47,0,0,0,.42.24q.8,0,2.25-1.83A13.12,13.12,0,0,0,153.91,5,3,3,0,0,0,154.46,3.76Z"/><path class="cls-3" d="M162.5,4.46l-1,2.6a2.49,2.49,0,0,0-.18.62c0,.17.08.25.23.25s.41-.16.7-.47a5.3,5.3,0,0,0,.58-.69c0-.08.08-.12.14-.12s.09,0,.09.08-.19.42-.55.82c-.65.7-1.16,1.06-1.54,1.06a.48.48,0,0,1-.53-.55,4.11,4.11,0,0,1,.33-1.3l.86-2.3a2,2,0,0,0,.18-.65.37.37,0,0,0-.43-.42c-.43,0-1,.44-1.78,1.33a10.36,10.36,0,0,0-1.08,1.59,9.31,9.31,0,0,0-.8,1.73.8.8,0,0,1-.14.34.54.54,0,0,1-.35.08H157q-.15,0-.15-.15s0-.12.07-.28L158,4.5a3.08,3.08,0,0,0,.14-.66c0-.2-.08-.29-.24-.29s-.35.14-.63.43a3.31,3.31,0,0,0-.5.63c0,.09-.08.13-.14.13s-.09,0-.09-.08a1.25,1.25,0,0,1,.23-.41,3.11,3.11,0,0,1,.29-.38c.54-.65,1-1,1.45-1s.5.2.5.59a3.62,3.62,0,0,1-.21,1.07l-.53,1.66,0,0a11,11,0,0,1,1.49-2.14A3.09,3.09,0,0,1,162,2.9c.5,0,.75.23.75.68A2.68,2.68,0,0,1,162.5,4.46Z"/><path class="cls-3" d="M164.57,7.05l.86-2.82a1.59,1.59,0,0,0,.1-.41c0-.14-.05-.22-.15-.22s-.39.18-.72.54a5.19,5.19,0,0,1-.53.53s-.07,0-.07-.09.2-.41.6-.79a2.5,2.5,0,0,1,1.43-.89c.25,0,.37.15.37.45a3.61,3.61,0,0,1-.2.88l-.9,2.92a2.24,2.24,0,0,0-.11.49c0,.14.06.22.16.22s.33-.16.6-.47a4.09,4.09,0,0,0,.47-.64c.06-.11.12-.16.17-.16s.07,0,.07.09a2.11,2.11,0,0,1-.51.86c-.57.71-1.06,1.07-1.48,1.07-.25,0-.38-.16-.38-.49A3.92,3.92,0,0,1,164.57,7.05Zm2.55-5.73a.89.89,0,0,1-.18.52.57.57,0,0,1-.46.28c-.25,0-.38-.15-.38-.45a.83.83,0,0,1,.18-.5.55.55,0,0,1,.44-.27C167,.9,167.12,1,167.12,1.32Z"/><path class="cls-1" d="M39.29,19l1.32-4.34a3.49,3.49,0,0,0,.19-.93q0-.33-.48-.33h-.19c-.16,0-.25,0-.25-.2s.1-.09.3-.09l.45,0,.43,0,.56,0,.56,0c.11,0,.17,0,.17.14s-.1.15-.28.15h-.45a.4.4,0,0,0-.18.1,3.78,3.78,0,0,0-.55,1.3l-1.76,5.79c0,.16-.07.23-.14.23s-.1-.06-.16-.19l-.11-.24-2.8-6.6-1.22,4A8.73,8.73,0,0,0,34.22,20a.33.33,0,0,0,.19.33,1.23,1.23,0,0,0,.44.15c.19,0,.29.05.29.16s-.06.14-.19.14l-.55,0-.56,0-.44,0-.44,0c-.19,0-.29,0-.29-.09s.08-.23.23-.21l.35-.1a.61.61,0,0,0,.29-.19,7.16,7.16,0,0,0,.52-1.35l1.33-4.3a3.86,3.86,0,0,0,.2-.83c0-.17-.14-.25-.42-.25h-.24a.16.16,0,0,1-.12-.17q0-.12.24-.12h1.38a.27.27,0,0,1,.27.12l.14.32Z"/><path class="cls-1" d="M46.46,15.58l0-.11a1.42,1.42,0,0,1,.15-.35A.49.49,0,0,1,47,15c.26,0,.33,0,.23,0,.13,0,.19.05.19.12a1.26,1.26,0,0,1-.06.24L46.1,19.49a1.65,1.65,0,0,0-.1.4q0,.18.12.18c.13,0,.32-.14.57-.41a4,4,0,0,0,.45-.58c.09-.15.16-.22.21-.22s.08,0,.08.09c0,.21-.21.55-.64,1a2.21,2.21,0,0,1-1.45.9c-.21,0-.32-.12-.32-.35a2.5,2.5,0,0,1,.13-.69l.73-2.4a13.06,13.06,0,0,1-1.58,2.14,3.28,3.28,0,0,1-2.15,1.3.83.83,0,0,1-.74-.41,1.5,1.5,0,0,1-.22-.84A3.59,3.59,0,0,1,41.63,18a5.67,5.67,0,0,1,1-1.38,4.06,4.06,0,0,1,2.94-1.47A1.12,1.12,0,0,1,46.46,15.58Zm-.18.43q0-.63-.78-.63a3.11,3.11,0,0,0-2.25,1.52,5.79,5.79,0,0,0-.73,1.23,3.24,3.24,0,0,0-.38,1.34.89.89,0,0,0,.13.5.49.49,0,0,0,.42.25c.53,0,1.28-.61,2.25-1.84a10.19,10.19,0,0,0,.79-1.13A3,3,0,0,0,46.28,16Z"/><path class="cls-1" d="M48.63,20.22l1.07-3.48a2.58,2.58,0,0,0,.15-.7c0-.17-.05-.25-.16-.25s-.53.27-.9.81l-.11.15c-.08.13-.14.19-.18.19s-.08,0-.08-.09.2-.44.61-.91.87-.79,1.22-.79.45.24.45.72a3,3,0,0,1-.18.82L50,18.41c.61-1.09,1-1.73,1.12-1.93.6-.89,1.12-1.33,1.57-1.33a.53.53,0,0,1,.6.61.8.8,0,0,1-.14.48.47.47,0,0,1-.41.24.39.39,0,0,1-.41-.3c-.06-.2-.12-.3-.19-.3-.25,0-.65.44-1.2,1.31a13,13,0,0,0-1.47,3,1.9,1.9,0,0,1-.16.44c-.05.07-.2.1-.42.1s-.34-.05-.34-.16A2.2,2.2,0,0,1,48.63,20.22Z"/><path class="cls-1" d="M58.05,15.58l0-.11a1.42,1.42,0,0,1,.15-.35.47.47,0,0,1,.35-.09c.25,0,.33,0,.23,0q.18,0,.18.12a1.26,1.26,0,0,1-.06.24l-1.25,4.11a2.38,2.38,0,0,0-.1.4c0,.12,0,.18.13.18s.32-.14.57-.41a4,4,0,0,0,.45-.58c.08-.15.15-.22.2-.22A.08.08,0,0,1,59,19c0,.21-.22.55-.64,1a2.26,2.26,0,0,1-1.45.9c-.22,0-.33-.12-.33-.35a3,3,0,0,1,.13-.69l.74-2.4a13.08,13.08,0,0,1-1.59,2.14,3.26,3.26,0,0,1-2.15,1.3.82.82,0,0,1-.73-.41,1.51,1.51,0,0,1-.23-.84A3.73,3.73,0,0,1,53.22,18a5.67,5.67,0,0,1,1-1.38,4.09,4.09,0,0,1,2.94-1.47A1.1,1.1,0,0,1,58.05,15.58Zm-.17.43q0-.63-.78-.63a3.13,3.13,0,0,0-2.26,1.52,6.24,6.24,0,0,0-.73,1.23,3.4,3.4,0,0,0-.38,1.34,1,1,0,0,0,.13.5.51.51,0,0,0,.43.25c.53,0,1.27-.61,2.25-1.84a11.72,11.72,0,0,0,.79-1.13A3.1,3.1,0,0,0,57.88,16Z"/><path class="cls-1" d="M62.2,16.46l-1,2.45a2.54,2.54,0,0,0-.25.92.61.61,0,0,0,.18.45.57.57,0,0,0,.44.18,2.92,2.92,0,0,0,2.1-1.41,4.09,4.09,0,0,0,1-2.39.87.87,0,0,0-.15-.5,1.17,1.17,0,0,1-.23-.59.6.6,0,0,1,.12-.36.34.34,0,0,1,.29-.18q.26,0,.39.33a1.46,1.46,0,0,1,.11.55A5.36,5.36,0,0,1,64,19.06a3.65,3.65,0,0,1-2.77,1.8c-.74,0-1.1-.35-1.1-1.05a3.88,3.88,0,0,1,.33-1.18l.88-2.17a2.72,2.72,0,0,0,.18-.53c0-.12-.06-.18-.17-.18s-.33.13-.61.41a5.51,5.51,0,0,0-.51.59c0,.08-.09.12-.14.12s-.08,0-.08-.1a.85.85,0,0,1,.16-.29,4.54,4.54,0,0,1,.81-.84,1.74,1.74,0,0,1,1-.49.38.38,0,0,1,.43.44A2.66,2.66,0,0,1,62.2,16.46Z"/><path class="cls-1" d="M71,17.52a3.06,3.06,0,0,1-1,2.23,3.31,3.31,0,0,1-2.38,1.11,1.8,1.8,0,0,1-1.5-.74,2.52,2.52,0,0,1-.54-1.63,3.24,3.24,0,0,1,1-2.31,3.1,3.1,0,0,1,2.27-1,2,2,0,0,1,1.55.73A2.46,2.46,0,0,1,71,17.52ZM70.14,17c0-1-.41-1.57-1.22-1.57a2.12,2.12,0,0,0-1.85,1.24,4.38,4.38,0,0,0-.62,2.25c0,1.14.42,1.71,1.25,1.71a2.15,2.15,0,0,0,1.81-1.33A4.66,4.66,0,0,0,70.14,17Z"/><path class="cls-1" d="M73.47,18.55l-.39-.36a2.12,2.12,0,0,1-.88-1.38,1.47,1.47,0,0,1,.62-1.23,2.15,2.15,0,0,1,1.34-.43,3.55,3.55,0,0,1,.86.1c.4.09.61.23.61.41s0,.19-.09.35a1.89,1.89,0,0,1-.06.21c0,.1-.09.15-.16.15s-.19-.09-.38-.28a1.79,1.79,0,0,0-1.17-.67.9.9,0,0,0-.62.23.74.74,0,0,0-.25.58,1.43,1.43,0,0,0,.52.93c.22.2.54.52,1,.95a1.63,1.63,0,0,1,.52,1.11,1.47,1.47,0,0,1-.71,1.19,2.37,2.37,0,0,1-1.44.45,2.57,2.57,0,0,1-1.4-.41c-.18-.13-.27-.24-.27-.34,0,.1,0,0,.14-.3s.18-.53.21-.53.18.11.33.34a3.18,3.18,0,0,0,.47.63,1.13,1.13,0,0,0,1.56.07.81.81,0,0,0,.34-.66A1.65,1.65,0,0,0,73.47,18.55Z"/><path class="cls-1" d="M76.24,19.31l1.68-5.47a2.41,2.41,0,0,0,.12-.5c0-.22-.16-.32-.47-.3h-.19c-.1,0-.15,0-.15-.13s.12-.14.36-.15A2.42,2.42,0,0,0,79,12.3l.1-.05a.1.1,0,0,1,.11.11,2.49,2.49,0,0,1-.07.29l-2.08,6.78a3,3,0,0,0-.13.48q0,.21.18.21c.12,0,.32-.15.58-.46a5,5,0,0,0,.47-.65q.09-.15.18-.15s.06,0,.06.08a1.88,1.88,0,0,1-.5.86c-.57.71-1.07,1.06-1.49,1.06-.25,0-.38-.16-.38-.47A4.41,4.41,0,0,1,76.24,19.31Z"/><path class="cls-1" d="M84.61,17.52a3,3,0,0,1-1,2.23,3.33,3.33,0,0,1-2.38,1.11,1.82,1.82,0,0,1-1.51-.74,2.57,2.57,0,0,1-.53-1.63,3.27,3.27,0,0,1,1-2.31,3.11,3.11,0,0,1,2.27-1,2,2,0,0,1,1.55.73A2.41,2.41,0,0,1,84.61,17.52ZM83.77,17c0-1-.4-1.57-1.22-1.57a2.13,2.13,0,0,0-1.85,1.24,4.38,4.38,0,0,0-.62,2.25q0,1.71,1.26,1.71a2.13,2.13,0,0,0,1.8-1.33A4.66,4.66,0,0,0,83.77,17Z"/><path class="cls-1" d="M87.53,16.46l-1,2.45a2.7,2.7,0,0,0-.24.92.64.64,0,0,0,.17.45.61.61,0,0,0,.45.18A2.92,2.92,0,0,0,89,19.05a4.13,4.13,0,0,0,1-2.39.87.87,0,0,0-.15-.5,1.14,1.14,0,0,1-.22-.59.66.66,0,0,1,.11-.36.35.35,0,0,1,.3-.18q.25,0,.39.33a1.46,1.46,0,0,1,.11.55,5.38,5.38,0,0,1-1.27,3.15,3.64,3.64,0,0,1-2.77,1.8c-.73,0-1.1-.35-1.1-1.05a3.69,3.69,0,0,1,.34-1.18l.88-2.17a2.36,2.36,0,0,0,.17-.53c0-.12,0-.18-.16-.18s-.34.13-.61.41a3.89,3.89,0,0,0-.51.59c0,.08-.1.12-.14.12s-.08,0-.08-.1a.7.7,0,0,1,.16-.29,4,4,0,0,1,.81-.84,1.74,1.74,0,0,1,1-.49.39.39,0,0,1,.43.44A2.66,2.66,0,0,1,87.53,16.46Z"/><path class="cls-1" d="M97,16.72l-1,2.59a3,3,0,0,0-.17.63c0,.16.07.24.23.24s.4-.15.7-.46a4.16,4.16,0,0,0,.57-.7.18.18,0,0,1,.15-.11c.05,0,.08,0,.08.08s-.18.42-.55.81c-.64.71-1.16,1.06-1.54,1.06s-.52-.18-.52-.55a4.17,4.17,0,0,1,.33-1.3l.86-2.29a2,2,0,0,0,.17-.65.37.37,0,0,0-.42-.43c-.44,0-1,.44-1.79,1.33A11.16,11.16,0,0,0,93,18.56a9.66,9.66,0,0,0-.8,1.74,1.07,1.07,0,0,1-.14.34.59.59,0,0,1-.35.07h-.23c-.1,0-.15-.05-.15-.14a1.43,1.43,0,0,1,.07-.28l1.08-3.54a2.53,2.53,0,0,0,.15-.66c0-.19-.09-.29-.25-.29s-.35.14-.63.43a2.66,2.66,0,0,0-.49.64c0,.08-.08.13-.14.13s-.1,0-.1-.09a1.27,1.27,0,0,1,.24-.41,2.13,2.13,0,0,1,.29-.37c.54-.65,1-1,1.44-1s.5.2.5.6a3.74,3.74,0,0,1-.21,1.07l-.52,1.66,0,0a10.48,10.48,0,0,1,1.5-2.13,3.11,3.11,0,0,1,2.16-1.22c.5,0,.75.23.75.68A3,3,0,0,1,97,16.72Z"/><path class="cls-1" d="M103.77,17.52a3,3,0,0,1-1,2.23,3.33,3.33,0,0,1-2.38,1.11,1.82,1.82,0,0,1-1.51-.74,2.57,2.57,0,0,1-.53-1.63,3.27,3.27,0,0,1,1-2.31,3.11,3.11,0,0,1,2.27-1,2,2,0,0,1,1.55.73A2.41,2.41,0,0,1,103.77,17.52Zm-.84-.55c0-1-.4-1.57-1.22-1.57a2.13,2.13,0,0,0-1.85,1.24,4.37,4.37,0,0,0-.61,2.25c0,1.14.41,1.71,1.25,1.71a2.13,2.13,0,0,0,1.8-1.33A4.66,4.66,0,0,0,102.93,17Z"/><path class="cls-1" d="M106.67,15.65l-1.11,3.66a3.13,3.13,0,0,0-.15.59c0,.17.07.26.2.26s.51-.27.9-.82a2.36,2.36,0,0,0,.22-.33c.06-.09.11-.14.14-.14A.08.08,0,0,1,107,19a1.69,1.69,0,0,1-.36.64q-.93,1.26-1.62,1.26c-.3,0-.45-.21-.45-.64a4.45,4.45,0,0,1,.23-1l1.09-3.52h-.69c-.19,0-.28,0-.28-.09s.11-.22.32-.22h.73l.41-1.3c0-.09.18-.14.42-.14s.39,0,.39.12a1.86,1.86,0,0,1-.07.31l-.32,1h.91c.18,0,.27,0,.27.07s-.11.24-.33.24Z"/><path class="cls-1" d="M108.77,18.47l0,.18v.28a1.48,1.48,0,0,0,.32,1,1.22,1.22,0,0,0,1,.39A2.06,2.06,0,0,0,111.1,20a2.64,2.64,0,0,0,.83-.76c0-.06.09-.09.14-.09s.08,0,.08.08-.1.24-.31.47a3.07,3.07,0,0,1-2.3,1.18,1.64,1.64,0,0,1-1.29-.56,2,2,0,0,1-.46-1.35,3.7,3.7,0,0,1,1.15-2.61,3.52,3.52,0,0,1,2.57-1.19,1.63,1.63,0,0,1,1,.29,1,1,0,0,1,.45.87c0,.75-.51,1.3-1.52,1.65a18.23,18.23,0,0,1-2.48.48Zm0-.25c1.47-.12,2.41-.46,2.84-1a1.78,1.78,0,0,0,.42-1.12.63.63,0,0,0-.72-.7,2.13,2.13,0,0,0-1.66,1A4.9,4.9,0,0,0,108.81,18.22Z"/><path class="cls-1" d="M113.21,20.26,115.12,14a3.68,3.68,0,0,0,.17-.71c0-.27-.15-.39-.45-.38h-.22c-.09,0-.13,0-.13-.1s.09-.14.26-.15a3.43,3.43,0,0,0,1.51-.4.37.37,0,0,1,.11,0s.07,0,.07.1a2.25,2.25,0,0,1-.09.31l-1.6,5.23,0,0A8.17,8.17,0,0,1,116,16.26a2.82,2.82,0,0,1,1.82-1.11c.83,0,1.22.59,1.18,1.75a4.8,4.8,0,0,1-.92,2.43q-1,1.53-2.1,1.53a1.11,1.11,0,0,1-.56-.14.53.53,0,0,1-.27-.47c0-.23.12-.35.38-.35.11,0,.24.12.37.35s.26.36.4.36c.38,0,.76-.47,1.15-1.4a8.41,8.41,0,0,0,.64-2.4,1.38,1.38,0,0,0-.08-.72.58.58,0,0,0-.56-.38,1.9,1.9,0,0,0-1,.61,7,7,0,0,0-.89.94,9.75,9.75,0,0,0-1.47,3c-.06.2-.11.32-.13.38a.55.55,0,0,1-.39.11c-.27,0-.4,0-.4-.1A2.22,2.22,0,0,1,113.21,20.26Z"/><path class="cls-1" d="M126.14,16.72l-1,2.59a2.64,2.64,0,0,0-.18.63.21.21,0,0,0,.24.24c.17,0,.4-.15.7-.46a5.45,5.45,0,0,0,.57-.7c0-.07.09-.11.14-.11s.09,0,.09.08-.18.42-.55.81c-.64.71-1.16,1.06-1.54,1.06s-.52-.18-.52-.55a4.38,4.38,0,0,1,.32-1.3l.87-2.29a2.28,2.28,0,0,0,.17-.65.38.38,0,0,0-.43-.43c-.43,0-1,.44-1.78,1.33a11.16,11.16,0,0,0-1.07,1.59,9,9,0,0,0-.8,1.74,1,1,0,0,1-.15.34.55.55,0,0,1-.35.07h-.23c-.1,0-.15-.05-.15-.14a2,2,0,0,1,.08-.28l1.08-3.54a2.4,2.4,0,0,0,.14-.66c0-.19-.08-.29-.24-.29s-.35.14-.63.43a3,3,0,0,0-.5.64c0,.08-.07.13-.13.13s-.1,0-.1-.09a1.36,1.36,0,0,1,.23-.41,2.78,2.78,0,0,1,.29-.37c.55-.65,1-1,1.45-1s.5.2.5.6a3.74,3.74,0,0,1-.21,1.07l-.52,1.66,0,0a10.48,10.48,0,0,1,1.5-2.13,3.11,3.11,0,0,1,2.15-1.22c.51,0,.76.23.76.68A3,3,0,0,1,126.14,16.72Z"/><path class="cls-1" d="M128.2,19.3l.86-2.81a1.92,1.92,0,0,0,.11-.41c0-.15,0-.22-.15-.22s-.4.18-.73.53a5.5,5.5,0,0,1-.52.54s-.07,0-.07-.1.19-.4.59-.79a2.5,2.5,0,0,1,1.43-.89c.25,0,.38.15.38.45a3.86,3.86,0,0,1-.21.89L129,19.4a2,2,0,0,0-.1.49c0,.15.05.22.15.22s.33-.15.6-.46a3.56,3.56,0,0,0,.47-.65c.06-.1.12-.15.17-.15s.07,0,.07.08a2,2,0,0,1-.51.86c-.56.71-1.06,1.07-1.47,1.07-.26,0-.38-.16-.38-.48A4.28,4.28,0,0,1,128.2,19.3Zm2.55-5.72a.91.91,0,0,1-.18.52.58.58,0,0,1-.46.28c-.25,0-.38-.15-.38-.45a.88.88,0,0,1,.18-.51.55.55,0,0,1,.44-.27C130.62,13.15,130.75,13.29,130.75,13.58Z"/><path class="cls-1" d="M133,18.55l-.4-.36a2.16,2.16,0,0,1-.88-1.38,1.47,1.47,0,0,1,.62-1.23,2.17,2.17,0,0,1,1.34-.43,3.49,3.49,0,0,1,.86.1c.41.09.61.23.61.41s0,.19-.08.35,0,.12-.07.21-.09.15-.15.15-.2-.09-.38-.28a1.83,1.83,0,0,0-1.18-.67.9.9,0,0,0-.62.23.78.78,0,0,0-.25.58,1.45,1.45,0,0,0,.53.93c.21.2.54.52,1,.95a1.59,1.59,0,0,1,.52,1.11,1.46,1.46,0,0,1-.7,1.19,2.37,2.37,0,0,1-1.44.45,2.55,2.55,0,0,1-1.4-.41c-.19-.13-.28-.24-.28-.34,0,.1.05,0,.14-.3a1.87,1.87,0,0,1,.21-.53c.08,0,.19.11.33.34a3.18,3.18,0,0,0,.47.63,1.16,1.16,0,0,0,.83.35,1.2,1.2,0,0,0,.74-.28.83.83,0,0,0,.34-.66A1.69,1.69,0,0,0,133,18.55Zm1-4.64,1.62-1.34a.78.78,0,0,1,.49-.21c.17,0,.26,0,.26.11s-.07.15-.23.28l-1.7,1.41a.63.63,0,0,1-.44.15,1,1,0,0,1-.35,0,1.16,1.16,0,0,1-.18-.3l-.62-1.19a1.51,1.51,0,0,1-.15-.33c0-.07.07-.1.21-.1a.7.7,0,0,1,.32,0,.89.89,0,0,1,.18.29Z"/><path class="cls-1" d="M136.86,18.55l-.6,1.61-.14.42c-.06.09-.19.13-.4.13s-.4,0-.4-.11a1.34,1.34,0,0,1,.07-.3l2-6.46a3.13,3.13,0,0,0,.15-.68c0-.2-.18-.31-.53-.33-.15,0-.22,0-.22-.12s.09-.12.28-.12a2.76,2.76,0,0,0,1.39-.3l.13,0c.06,0,.08,0,.08.09a2.06,2.06,0,0,1-.1.36L136.94,18a8,8,0,0,1,1.33-1.77,2.82,2.82,0,0,1,1.82-1,1,1,0,0,1,.73.32,1.08,1.08,0,0,1,.29.75A2,2,0,0,1,140,17.89a6.67,6.67,0,0,1-2.13.59,1.82,1.82,0,0,1,.8,1,5.27,5.27,0,0,0,.38.71.79.79,0,0,0,.63.39.61.61,0,0,0,.37-.12.43.43,0,0,0,.15-.33c0-.12-.08-.23-.26-.33s-.26-.21-.26-.34.1-.33.31-.33c.37,0,.55.22.55.67a1,1,0,0,1-.38.8,1.31,1.31,0,0,1-.86.29,1.38,1.38,0,0,1-1.11-.56,5.73,5.73,0,0,1-.62-1.15c-.18-.4-.38-.61-.61-.61Zm.11-.21h.29a3.71,3.71,0,0,0,1.92-.56,1.84,1.84,0,0,0,1.08-1.57.49.49,0,0,0-.54-.56,2.43,2.43,0,0,0-1.58,1A8.39,8.39,0,0,0,137,18.34Z"/><path class="cls-1" d="M146.53,15.58l0-.11a1.42,1.42,0,0,1,.15-.35.47.47,0,0,1,.35-.09c.25,0,.33,0,.23,0q.18,0,.18.12a1.26,1.26,0,0,1-.06.24l-1.25,4.11a2.38,2.38,0,0,0-.1.4c0,.12,0,.18.13.18s.32-.14.57-.41a4,4,0,0,0,.45-.58c.08-.15.15-.22.2-.22a.08.08,0,0,1,.09.09c0,.21-.22.55-.64,1a2.26,2.26,0,0,1-1.45.9c-.22,0-.33-.12-.33-.35a3,3,0,0,1,.13-.69l.74-2.4a13.08,13.08,0,0,1-1.59,2.14,3.26,3.26,0,0,1-2.15,1.3.82.82,0,0,1-.73-.41,1.5,1.5,0,0,1-.22-.84A3.7,3.7,0,0,1,141.7,18a5.67,5.67,0,0,1,1-1.38,4.09,4.09,0,0,1,2.94-1.47A1.1,1.1,0,0,1,146.53,15.58Zm-.17.43q0-.63-.78-.63a3.13,3.13,0,0,0-2.26,1.52,6.24,6.24,0,0,0-.73,1.23,3.4,3.4,0,0,0-.38,1.34,1,1,0,0,0,.13.5.51.51,0,0,0,.43.25c.53,0,1.28-.61,2.25-1.84a11.72,11.72,0,0,0,.79-1.13A3.1,3.1,0,0,0,146.36,16Z"/><path class="cls-3" d="M153,16.21v3.28a6.37,6.37,0,0,0,0,.67.54.54,0,0,0,.53.32c.22,0,.34.08.34.15s0,.13-.15.13l-.6,0-.59,0-.56,0-.56,0c-.1,0-.16,0-.16-.12s.11-.14.33-.17.47-.13.52-.33a2.81,2.81,0,0,0,0-.66V16.21a.84.84,0,0,0,0-.36s-.13-.08-.31-.08h-.22c-.1,0-.15,0-.15-.11s.1-.13.3-.19a.49.49,0,0,0,.35-.32s0-.2,0-.51a2.6,2.6,0,0,1,.52-1.62,2.29,2.29,0,0,1,1.71-.82,2.35,2.35,0,0,1,.61.1c.3.09.45.21.45.35a1.15,1.15,0,0,1-.12.41c-.08.19-.15.28-.22.28s-.19-.09-.35-.26c-.31-.35-.58-.53-.82-.53-.61,0-.92.56-.92,1.68v.61a1.29,1.29,0,0,0,0,.47s.18.07.42.07h1c.11,0,.17.08.17.23s0,.15-.11.16h-1.07c-.21,0-.34,0-.37.06A.79.79,0,0,0,153,16.21Z"/><path class="cls-3" d="M157,18.19l.94-.43a1.1,1.1,0,0,0,.38-.24,1,1,0,0,0,.07-.44v-.53a2,2,0,0,0-.11-.77.68.68,0,0,0-.67-.32,1.49,1.49,0,0,0-1.39,1,.87.87,0,0,1-.13.25.46.46,0,0,1-.21.18,1.28,1.28,0,0,1-.52.16c-.1,0-.15-.05-.15-.14a1.25,1.25,0,0,1,.5-.87,3.24,3.24,0,0,1,2.17-.83c.8,0,1.24.24,1.33.72a3.55,3.55,0,0,1,0,.48v2.86c0,.65.14,1,.42,1a1.15,1.15,0,0,0,.55-.3s.08,0,.08.1-.1.2-.29.37a1.56,1.56,0,0,1-.86.36c-.22,0-.5-.29-.83-.85l-.31.24a2.75,2.75,0,0,1-1.64.67,1.28,1.28,0,0,1-.8-.26.81.81,0,0,1-.34-.7,1.36,1.36,0,0,1,.64-1.05A6.18,6.18,0,0,1,157,18.19Zm1.17-.31-1.11.56c-.63.32-.94.7-.94,1.14a.63.63,0,0,0,.24.53.91.91,0,0,0,.59.19,1.52,1.52,0,0,0,1.13-.48,1.25,1.25,0,0,0,.31-.92v-.72c0-.23,0-.34-.09-.34Z"/><path class="cls-3" d="M162.53,18.79v.69a4.09,4.09,0,0,0,0,.67c.06.2.24.31.52.33s.34.08.34.15,0,.13-.14.13l-.57,0-.58,0-.57,0-.58,0c-.11,0-.17,0-.17-.12s.11-.14.34-.17.46-.13.52-.33a3.51,3.51,0,0,0,0-.66V14c0-.39,0-.61,0-.65a.43.43,0,0,0-.47-.33c-.21,0-.31,0-.31-.12s.06-.12.17-.14a2.71,2.71,0,0,0,1.09-.37.73.73,0,0,1,.26-.14c.07,0,.11.07.11.2v5.28c0,.17,0,.25.07.25s.07,0,.13-.09l1.8-1.41c.33-.26.5-.45.5-.57s-.13-.19-.39-.2h-.28c-.12,0-.18-.07-.18-.16s.09-.11.26-.11h2.14c.14,0,.21,0,.21.1s-.08.14-.25.15a1.45,1.45,0,0,0-.75.2c-.11.07-.33.23-.64.48l-.92.73c-.21.16-.31.27-.31.32a.24.24,0,0,0,.08.16l1.84,2.33a3.88,3.88,0,0,0,.38.44,1,1,0,0,0,.49.18q.27,0,.27.18c0,.08-.06.11-.19.11l-.6,0-.59,0-.57,0-.56,0c-.13,0-.2,0-.2-.09a.18.18,0,0,1,.21-.2c.32,0,.47-.08.47-.23a1.12,1.12,0,0,0-.29-.51l-1.13-1.48c-.17-.23-.28-.34-.35-.34a.86.86,0,0,0-.28.17,2.16,2.16,0,0,0-.33.28A1.26,1.26,0,0,0,162.53,18.79Z"/><path class="cls-3" d="M172.74,15.69v3.57a3.3,3.3,0,0,0,0,.59c.05.16.2.22.46.21h.16c.11,0,.16,0,.16.09s-.09.11-.26.16a4.2,4.2,0,0,0-1.21.52l-.13.08c-.05,0-.07,0-.07-.1v-.29c0-.33,0-.5-.09-.5a3.48,3.48,0,0,0-.42.29,3.43,3.43,0,0,1-.51.33,2,2,0,0,1-.93.22,1.74,1.74,0,0,1-1.43-.7,1.77,1.77,0,0,1-.33-.83,7.89,7.89,0,0,1,0-.88V16.6a6.48,6.48,0,0,0,0-.68c-.06-.2-.23-.29-.52-.29s-.33-.06-.33-.17.05-.08.16-.08h1.36a.18.18,0,0,1,.19.15v2.91a2.75,2.75,0,0,0,.22,1.35,1.31,1.31,0,0,0,1.21.56,1.65,1.65,0,0,0,1.3-.55.69.69,0,0,0,.2-.42,3.24,3.24,0,0,1,0-.47V16.59a4.26,4.26,0,0,0,0-.67c0-.2-.22-.29-.5-.29s-.33-.06-.33-.16.06-.09.17-.09h1.4a.15.15,0,0,1,.15.1Z"/><path class="cls-3" d="M175.89,12.4v7.09a3.43,3.43,0,0,0,0,.66c.06.2.24.31.52.33s.34.08.34.15-.05.13-.15.13l-.57,0-.57,0-.57,0-.58,0c-.11,0-.17,0-.17-.12s.11-.14.34-.17.46-.13.52-.33a3.51,3.51,0,0,0,0-.66V14a5.69,5.69,0,0,0,0-.65.42.42,0,0,0-.46-.33c-.21,0-.31,0-.31-.12s0-.12.17-.14a2.71,2.71,0,0,0,1.09-.37.72.72,0,0,1,.25-.14C175.86,12.2,175.89,12.27,175.89,12.4Z"/><path class="cls-3" d="M178.73,15.91V19a3.29,3.29,0,0,0,.09.91.63.63,0,0,0,.63.51,1,1,0,0,0,.57-.22l.31-.2s.08,0,.08.09-.08.22-.24.33a1.61,1.61,0,0,1-1.13.46,1,1,0,0,1-1.13-1.09c0-.08,0-.35,0-.79V15.85c0-.11,0-.18-.08-.2h-.23c-.25,0-.37,0-.37-.1s.05-.1.14-.18a3.13,3.13,0,0,0,1.16-1.23c0-.07.07-.11.12-.11s.09.05.09.15V15c0,.16.07.24.2.24h1.2c.07,0,.11.06.11.17s0,.18-.08.2h-1.3C178.77,15.67,178.73,15.76,178.73,15.91Z"/><path class="cls-3" d="M186,17.4h-3.68a1,1,0,0,0-.39,0c-.07,0-.11.15-.11.34a2.57,2.57,0,0,0,.65,1.78,2.14,2.14,0,0,0,1.71.75,2.35,2.35,0,0,0,1.53-.57,1.44,1.44,0,0,1,.26-.2c.07,0,.1,0,.1.09s-.16.28-.47.54a2.91,2.91,0,0,1-1.92.68,2.64,2.64,0,0,1-2-.81,2.72,2.72,0,0,1-.8-2,2.6,2.6,0,0,1,.91-2.06,3.1,3.1,0,0,1,2.15-.77,2.15,2.15,0,0,1,1.75.74,1.9,1.9,0,0,1,.42,1.22C186.1,17.33,186.06,17.4,186,17.4Zm-3.67-.28h1a7.93,7.93,0,0,0,1.09,0c.51-.07.76-.25.76-.54a1,1,0,0,0-.43-.83,1.65,1.65,0,0,0-.94-.27,1.89,1.89,0,0,0-1.58.82,1.27,1.27,0,0,0-.3.7C181.88,17.07,182,17.12,182.29,17.12Z"/><path class="cls-3" d="M188.2,15.91V19a3.29,3.29,0,0,0,.09.91.63.63,0,0,0,.63.51,1,1,0,0,0,.57-.22l.31-.2s.08,0,.08.09-.08.22-.24.33a1.61,1.61,0,0,1-1.13.46,1,1,0,0,1-1.13-1.09c0-.08,0-.35,0-.79V15.85c0-.11,0-.18-.08-.2h-.23c-.25,0-.37,0-.37-.1s.05-.1.14-.18A3.13,3.13,0,0,0,188,14.13c0-.07.07-.11.12-.11s.09.05.09.15V15c0,.16.07.24.2.24h1.2c.07,0,.11.06.11.17s0,.18-.08.2h-1.3C188.25,15.67,188.2,15.76,188.2,15.91Z"/><path class="cls-3" d="M192.16,18.19l.94-.43a1.1,1.1,0,0,0,.38-.24,1,1,0,0,0,.07-.44v-.53a2,2,0,0,0-.11-.77.68.68,0,0,0-.67-.32,1.49,1.49,0,0,0-1.39,1,.87.87,0,0,1-.13.25.46.46,0,0,1-.21.18,1.28,1.28,0,0,1-.52.16c-.1,0-.15-.05-.15-.14a1.25,1.25,0,0,1,.5-.87,3.24,3.24,0,0,1,2.17-.83c.8,0,1.24.24,1.33.72a4.65,4.65,0,0,1,0,.48v2.86c0,.65.15,1,.43,1a1.19,1.19,0,0,0,.55-.3s.08,0,.08.1-.1.2-.29.37a1.56,1.56,0,0,1-.86.36c-.22,0-.5-.29-.83-.85l-.31.24a2.75,2.75,0,0,1-1.64.67,1.28,1.28,0,0,1-.8-.26.81.81,0,0,1-.34-.7,1.36,1.36,0,0,1,.64-1.05A6.18,6.18,0,0,1,192.16,18.19Zm1.17-.31-1.11.56c-.63.32-.94.7-.94,1.14a.63.63,0,0,0,.24.53.91.91,0,0,0,.59.19,1.52,1.52,0,0,0,1.13-.48,1.25,1.25,0,0,0,.31-.92v-.72c0-.23,0-.34-.09-.34Z"/><path class="cls-3" d="M7.87,28.53a4.45,4.45,0,0,1-1.35,3.21,4.27,4.27,0,0,1-3.17,1.38,3.2,3.2,0,0,1-2.4-1A3.32,3.32,0,0,1,0,29.71a4.31,4.31,0,0,1,1.37-3.16,4.43,4.43,0,0,1,3.19-1.34,3.2,3.2,0,0,1,2.36.95A3.25,3.25,0,0,1,7.87,28.53Zm-3.33-3a3,3,0,0,0-2.66,1.7,6.85,6.85,0,0,0-.61,1.44A5.29,5.29,0,0,0,1,30.19,2.84,2.84,0,0,0,1.6,32a2.13,2.13,0,0,0,1.74.77,2.73,2.73,0,0,0,1.53-.47A3.21,3.21,0,0,0,6,31.15a6.35,6.35,0,0,0,.89-2.93,3.08,3.08,0,0,0-.54-1.92A2.07,2.07,0,0,0,4.54,25.52Z"/><path class="cls-3" d="M13.41,27.81l.52-1.71a2.57,2.57,0,0,0,.12-.5c0-.22-.16-.32-.47-.3h-.2c-.09,0-.14,0-.14-.13s.12-.14.36-.15a2.54,2.54,0,0,0,1.4-.46.22.22,0,0,1,.11,0c.06,0,.09,0,.09.1a1.34,1.34,0,0,1-.07.3l-2.08,6.77a2.73,2.73,0,0,0-.12.49c0,.14.06.21.17.21s.32-.16.58-.47a3.28,3.28,0,0,0,.48-.64c.08-.11.14-.16.18-.16s.06,0,.06.09a1.77,1.77,0,0,1-.5.85c-.58.71-1.08,1.07-1.49,1.07-.25,0-.37-.16-.37-.48a4.22,4.22,0,0,1,.21-1.07L12.74,30c-.73,1-1.23,1.66-1.49,1.94a3,3,0,0,1-2,1.2.91.91,0,0,1-.81-.45,1.75,1.75,0,0,1-.24-.94,3.54,3.54,0,0,1,.45-1.65,5.05,5.05,0,0,1,2.39-2.29,3.65,3.65,0,0,1,1.57-.38A.81.81,0,0,1,13.41,27.81Zm-.16.41a.52.52,0,0,0-.23-.45.84.84,0,0,0-.49-.14,2.4,2.4,0,0,0-1.3.48,5,5,0,0,0-1.76,2.21,3.55,3.55,0,0,0-.34,1.4c0,.53.19.8.56.8.59,0,1.37-.65,2.33-1.94a10.91,10.91,0,0,0,.74-1.15A2.92,2.92,0,0,0,13.25,28.22Z"/><path class="cls-3" d="M20.28,27.81l.52-1.71a2.57,2.57,0,0,0,.12-.5c0-.22-.16-.32-.47-.3h-.2c-.09,0-.14,0-.14-.13s.12-.14.36-.15a2.54,2.54,0,0,0,1.4-.46.27.27,0,0,1,.11,0c.06,0,.09,0,.09.1a1.34,1.34,0,0,1-.07.3l-2.07,6.77a2.3,2.3,0,0,0-.13.49c0,.14.06.21.17.21s.32-.16.58-.47a3.28,3.28,0,0,0,.48-.64c.08-.11.14-.16.18-.16s.06,0,.06.09a1.69,1.69,0,0,1-.5.85c-.58.71-1.08,1.07-1.49,1.07-.25,0-.37-.16-.37-.48a4.22,4.22,0,0,1,.21-1.07l.5-1.59c-.74,1-1.23,1.66-1.5,1.94a3,3,0,0,1-2,1.2.91.91,0,0,1-.81-.45,1.75,1.75,0,0,1-.24-.94,3.54,3.54,0,0,1,.45-1.65,5,5,0,0,1,2.4-2.29,3.57,3.57,0,0,1,1.56-.38A.81.81,0,0,1,20.28,27.81Zm-.16.41a.54.54,0,0,0-.22-.45.89.89,0,0,0-.5-.14,2.35,2.35,0,0,0-1.29.48,4.87,4.87,0,0,0-1.76,2.21,3.59,3.59,0,0,0-.35,1.4c0,.53.19.8.56.8.59,0,1.37-.65,2.33-1.94a12.77,12.77,0,0,0,.75-1.15A3,3,0,0,0,20.12,28.22Z"/><path class="cls-3" d="M22.93,30.72l0,.18v.28a1.46,1.46,0,0,0,.32,1,1.22,1.22,0,0,0,1,.39,2.15,2.15,0,0,0,1.07-.34,2.79,2.79,0,0,0,.83-.77c.05-.06.09-.09.14-.09a.07.07,0,0,1,.08.08c0,.08-.1.24-.31.48a3.1,3.1,0,0,1-2.3,1.18,1.6,1.6,0,0,1-1.29-.57A2,2,0,0,1,22,31.21a3.71,3.71,0,0,1,1.15-2.62,3.5,3.5,0,0,1,2.56-1.18,1.57,1.57,0,0,1,1,.29,1,1,0,0,1,.45.86c0,.75-.51,1.3-1.52,1.65a18,18,0,0,1-2.48.49Zm0-.24c1.47-.12,2.41-.46,2.84-1a1.8,1.8,0,0,0,.42-1.13q0-.69-.72-.69a2.14,2.14,0,0,0-1.67,1A5.09,5.09,0,0,0,23,30.48Z"/><path class="cls-3" d="M27.64,31.57l1.68-5.47a2.57,2.57,0,0,0,.12-.5c0-.22-.16-.32-.47-.3h-.19c-.1,0-.15,0-.15-.13S28.75,25,29,25a2.54,2.54,0,0,0,1.4-.46.27.27,0,0,1,.11,0c.06,0,.1,0,.1.11s0,.13-.07.29l-2.08,6.77a2.73,2.73,0,0,0-.12.49c0,.14.05.21.17.21s.32-.16.58-.47a4.2,4.2,0,0,0,.47-.64c.06-.11.12-.16.18-.16s.07,0,.07.09a1.92,1.92,0,0,1-.51.85c-.57.71-1.07,1.07-1.49,1.07-.25,0-.37-.16-.37-.48A4.22,4.22,0,0,1,27.64,31.57Z"/><path class="cls-3" d="M31.44,30.72l0,.18v.28a1.46,1.46,0,0,0,.33,1,1.19,1.19,0,0,0,1,.39,2.12,2.12,0,0,0,1.07-.34,2.79,2.79,0,0,0,.83-.77.21.21,0,0,1,.14-.09c.06,0,.08,0,.08.08s-.1.24-.31.48a3.08,3.08,0,0,1-2.29,1.18,1.63,1.63,0,0,1-1.3-.57,2,2,0,0,1-.45-1.34,3.7,3.7,0,0,1,1.14-2.62,3.5,3.5,0,0,1,2.57-1.18,1.56,1.56,0,0,1,1,.29,1,1,0,0,1,.45.86c0,.75-.51,1.3-1.52,1.65a17.67,17.67,0,0,1-2.48.49Zm0-.24a4,4,0,0,0,2.84-1,1.85,1.85,0,0,0,.41-1.13q0-.69-.72-.69a2.11,2.11,0,0,0-1.66,1A4.78,4.78,0,0,0,31.49,30.48Z"/><path class="cls-3" d="M37.3,30.8l-.6,1.61-.14.42c-.06.09-.19.14-.4.14s-.4,0-.4-.12a1.34,1.34,0,0,1,.07-.3l2-6.45a3.3,3.3,0,0,0,.15-.69c0-.2-.17-.3-.53-.32-.15,0-.22-.05-.22-.13s.09-.11.28-.11a2.65,2.65,0,0,0,1.39-.31l.13,0c.06,0,.09,0,.09.08s0,.15-.1.36l-1.6,5.25a7.58,7.58,0,0,1,1.32-1.76,2.77,2.77,0,0,1,1.82-1,.94.94,0,0,1,.73.32,1.08,1.08,0,0,1,.29.74,2,2,0,0,1-1.14,1.67,6.41,6.41,0,0,1-2.12.59,1.85,1.85,0,0,1,.8,1,6,6,0,0,0,.37.7.78.78,0,0,0,.63.4.56.56,0,0,0,.37-.13.41.41,0,0,0,.16-.33q0-.18-.27-.33a.41.41,0,0,1-.26-.34c0-.22.1-.32.31-.32.37,0,.55.22.55.66a1,1,0,0,1-.38.8,1.27,1.27,0,0,1-.86.3,1.37,1.37,0,0,1-1.11-.57A5.45,5.45,0,0,1,38,31.4c-.18-.4-.38-.6-.61-.6Zm.11-.21h.29A3.77,3.77,0,0,0,39.63,30a1.84,1.84,0,0,0,1.07-1.57c0-.37-.18-.56-.53-.56s-1,.35-1.59,1A8.05,8.05,0,0,0,37.41,30.59Z"/><path class="cls-3" d="M45.79,32.12l.4-.4.53-.56a20.9,20.9,0,0,1,3.35-2.76,3.25,3.25,0,0,1-1,.19,5.06,5.06,0,0,1-1.23-.19,4.07,4.07,0,0,0-.85-.15c-.58,0-.85.27-.82.79,0,.14,0,.21-.08.21s-.14-.12-.14-.36a1.42,1.42,0,0,1,.43-1.07,1.49,1.49,0,0,1,1.07-.41,3.09,3.09,0,0,1,1.2.39,3,3,0,0,0,1.36.4l.28,0,.43-.47a.79.79,0,0,1,.52-.29q.27,0,.27.18c0,.13-.24.34-.71.62a10.52,10.52,0,0,0-.93.67l-1.89,1.71-1.84,1.53A2.94,2.94,0,0,1,47,32a6.76,6.76,0,0,1,1.47.21,4,4,0,0,0,.58.1,1,1,0,0,0,.59-.18.6.6,0,0,0,.28-.52.67.67,0,0,0,0-.18.86.86,0,0,1,0-.17s0-.08.09-.08.21.17.21.5a1.37,1.37,0,0,1-.4.95,1.73,1.73,0,0,1-1.32.51,3.45,3.45,0,0,1-1.34-.39,4.1,4.1,0,0,0-1-.39,1.23,1.23,0,0,0-.57.33,1.29,1.29,0,0,1-.58.33q-.27,0-.27-.24c0-.18.14-.34.44-.47A1.67,1.67,0,0,1,45.79,32.12Z"/><path class="cls-3" d="M56.46,27.83l0-.11a1.42,1.42,0,0,1,.15-.35.54.54,0,0,1,.35-.08c.25,0,.33,0,.23,0,.12,0,.18.05.18.13a1.17,1.17,0,0,1,0,.24l-1.26,4.1a2.65,2.65,0,0,0-.1.4c0,.12,0,.18.13.18s.32-.13.57-.41a3.52,3.52,0,0,0,.45-.58c.09-.14.15-.22.21-.22s.08,0,.08.1-.21.54-.64,1a2.24,2.24,0,0,1-1.45.91c-.22,0-.32-.12-.32-.36a2.77,2.77,0,0,1,.12-.68l.74-2.4a13,13,0,0,1-1.59,2.13,3.26,3.26,0,0,1-2.15,1.31.84.84,0,0,1-.73-.41,1.55,1.55,0,0,1-.22-.84,3.63,3.63,0,0,1,.43-1.61,6.28,6.28,0,0,1,1-1.38,4.09,4.09,0,0,1,2.94-1.47A1.12,1.12,0,0,1,56.46,27.83Zm-.18.44q0-.63-.78-.63a3.1,3.1,0,0,0-2.26,1.52,6.15,6.15,0,0,0-.73,1.22,3.4,3.4,0,0,0-.38,1.35.92.92,0,0,0,.14.5.47.47,0,0,0,.42.24q.8,0,2.25-1.83a13.12,13.12,0,0,0,.79-1.13A3.16,3.16,0,0,0,56.28,28.27Z"/><path class="cls-3" d="M63.77,27.9l-1.12,3.67a3,3,0,0,0-.15.59c0,.17.07.25.2.25s.51-.27.91-.81q.11-.15.21-.33c.06-.1.11-.15.14-.15a.09.09,0,0,1,.1.1,1.69,1.69,0,0,1-.37.63c-.62.85-1.16,1.27-1.61,1.27-.3,0-.45-.22-.45-.65a4,4,0,0,1,.23-1l1.08-3.53h-.69c-.19,0-.28,0-.28-.09s.11-.22.33-.22H63l.41-1.3c0-.09.18-.13.42-.13s.39,0,.39.11a1.18,1.18,0,0,1-.07.31l-.32,1h.91c.18,0,.27,0,.27.07s-.11.24-.33.24Z"/><path class="cls-3" d="M65.86,30.72l0,.18v.28a1.51,1.51,0,0,0,.32,1,1.22,1.22,0,0,0,1,.39,2.12,2.12,0,0,0,1.07-.34,2.79,2.79,0,0,0,.83-.77.21.21,0,0,1,.14-.09c.06,0,.08,0,.08.08s-.1.24-.31.48a3.08,3.08,0,0,1-2.3,1.18,1.63,1.63,0,0,1-1.29-.57,2,2,0,0,1-.45-1.34A3.7,3.7,0,0,1,66,28.59a3.5,3.5,0,0,1,2.57-1.18,1.56,1.56,0,0,1,1,.29,1,1,0,0,1,.45.86c0,.75-.51,1.3-1.52,1.65A17.67,17.67,0,0,1,66,30.7Zm0-.24a4,4,0,0,0,2.84-1,1.85,1.85,0,0,0,.41-1.13q0-.69-.72-.69a2.11,2.11,0,0,0-1.66,1A4.78,4.78,0,0,0,65.91,30.48Z"/><path class="cls-3" d="M71.72,30.8l-.6,1.61-.14.42c-.06.09-.19.14-.4.14s-.4,0-.4-.12a1.34,1.34,0,0,1,.07-.3l2-6.45a3.3,3.3,0,0,0,.15-.69c0-.2-.17-.3-.53-.32-.15,0-.22-.05-.22-.13s.09-.11.28-.11a2.65,2.65,0,0,0,1.39-.31l.13,0c.06,0,.09,0,.09.08a2.81,2.81,0,0,1-.11.36L71.81,30.2a7.58,7.58,0,0,1,1.32-1.76,2.77,2.77,0,0,1,1.82-1,.94.94,0,0,1,.73.32,1.08,1.08,0,0,1,.29.74,2,2,0,0,1-1.14,1.67,6.41,6.41,0,0,1-2.12.59,1.85,1.85,0,0,1,.8,1,6,6,0,0,0,.37.7.78.78,0,0,0,.63.4.56.56,0,0,0,.37-.13.41.41,0,0,0,.16-.33q0-.18-.27-.33a.41.41,0,0,1-.26-.34c0-.22.1-.32.31-.32.37,0,.55.22.55.66a1,1,0,0,1-.38.8,1.27,1.27,0,0,1-.86.3A1.37,1.37,0,0,1,73,32.55a5.45,5.45,0,0,1-.62-1.15c-.18-.4-.38-.6-.61-.6Zm.11-.21h.29A3.77,3.77,0,0,0,74.05,30a1.84,1.84,0,0,0,1.07-1.57.49.49,0,0,0-.54-.56c-.45,0-1,.35-1.58,1A8.05,8.05,0,0,0,71.83,30.59Z"/><path class="cls-3" d="M78.12,30.8l-.4-.36a2.16,2.16,0,0,1-.88-1.38,1.5,1.5,0,0,1,.62-1.23,2.16,2.16,0,0,1,1.34-.42,4,4,0,0,1,.86.09c.41.1.61.23.61.42s0,.18-.08.35a2,2,0,0,0-.07.2q-.06.15-.15.15c-.07,0-.2-.09-.38-.28a1.88,1.88,0,0,0-1.18-.67.9.9,0,0,0-.62.23.78.78,0,0,0-.25.59,1.46,1.46,0,0,0,.53.92l1,.95a1.59,1.59,0,0,1,.52,1.11,1.46,1.46,0,0,1-.7,1.2,2.37,2.37,0,0,1-1.44.45A2.48,2.48,0,0,1,76,32.7c-.19-.12-.28-.23-.28-.34,0,.11,0,0,.14-.3a1.87,1.87,0,0,1,.21-.53c.08,0,.19.12.33.35a3.18,3.18,0,0,0,.47.63,1.19,1.19,0,0,0,.83.34,1.14,1.14,0,0,0,.74-.28.83.83,0,0,0,.34-.66A1.69,1.69,0,0,0,78.12,30.8Z"/><path class="cls-3" d="M82.85,27.9l-1.11,3.67a3,3,0,0,0-.15.59c0,.17.07.25.2.25s.51-.27.9-.81a2.7,2.7,0,0,0,.22-.33c.06-.1.11-.15.14-.15s.09,0,.09.1a1.76,1.76,0,0,1-.36.63c-.62.85-1.16,1.27-1.62,1.27-.3,0-.45-.22-.45-.65a4.17,4.17,0,0,1,.24-1L82,27.9h-.69c-.19,0-.28,0-.28-.09s.11-.22.32-.22h.73l.41-1.3c0-.09.18-.13.42-.13s.39,0,.39.11a1.18,1.18,0,0,1-.07.31l-.32,1h.91c.18,0,.27,0,.27.07s-.11.24-.33.24Z"/><path class="cls-3" d="M84.78,31.56l.87-2.82a2.2,2.2,0,0,0,.1-.41c0-.14,0-.22-.15-.22s-.4.18-.73.54a6,6,0,0,1-.52.53s-.07,0-.07-.1.19-.4.59-.78a2.45,2.45,0,0,1,1.43-.89c.25,0,.38.15.38.45a4.33,4.33,0,0,1-.2.88l-.9,2.92a1.71,1.71,0,0,0-.11.48c0,.15,0,.22.15.22s.33-.15.6-.46a3.56,3.56,0,0,0,.47-.65c.06-.1.12-.15.17-.15s.07,0,.07.08a2,2,0,0,1-.51.86q-.84,1.08-1.47,1.08c-.26,0-.38-.17-.38-.49A4.15,4.15,0,0,1,84.78,31.56Zm2.56-5.73a.9.9,0,0,1-.19.52.56.56,0,0,1-.46.28c-.25,0-.37-.15-.37-.45a.88.88,0,0,1,.17-.5.54.54,0,0,1,.44-.28A.38.38,0,0,1,87.34,25.83Z"/><path class="cls-3" d="M88,31.57l1.68-5.47a2.57,2.57,0,0,0,.12-.5c0-.22-.16-.32-.47-.3H89.1c-.1,0-.15,0-.15-.13s.12-.14.36-.15a2.54,2.54,0,0,0,1.4-.46.27.27,0,0,1,.11,0c.06,0,.1,0,.1.11s0,.13-.07.29l-2.08,6.77a2.73,2.73,0,0,0-.12.49c0,.14,0,.21.17.21s.32-.16.58-.47a4.2,4.2,0,0,0,.47-.64c.06-.11.12-.16.18-.16s.07,0,.07.09a1.92,1.92,0,0,1-.51.85c-.57.71-1.07,1.07-1.49,1.07-.25,0-.37-.16-.37-.48A4.22,4.22,0,0,1,88,31.57Z"/><path class="cls-3" d="M92.71,30.8l-.39-.36a2.12,2.12,0,0,1-.88-1.38,1.47,1.47,0,0,1,.62-1.23,2.13,2.13,0,0,1,1.33-.42,4,4,0,0,1,.86.09c.41.1.62.23.62.42s0,.18-.09.35,0,.11-.06.2-.09.15-.16.15-.19-.09-.38-.28A1.84,1.84,0,0,0,93,27.67a.88.88,0,0,0-.62.23.75.75,0,0,0-.25.59,1.44,1.44,0,0,0,.52.92c.22.21.54.52,1,.95a1.61,1.61,0,0,1,.53,1.11,1.47,1.47,0,0,1-.71,1.2,2.37,2.37,0,0,1-1.44.45,2.5,2.5,0,0,1-1.4-.42c-.18-.12-.28-.23-.28-.34q0,.16.15-.3a2.11,2.11,0,0,1,.2-.53c.08,0,.19.12.34.35a3.21,3.21,0,0,0,.46.63,1.21,1.21,0,0,0,.83.34,1.12,1.12,0,0,0,.74-.28.81.81,0,0,0,.34-.66A1.65,1.65,0,0,0,92.71,30.8Z"/><path class="cls-3" d="M97.45,27.9l-1.12,3.67a3.44,3.44,0,0,0-.14.59c0,.17.06.25.19.25s.52-.27.91-.81l.22-.33c.06-.1.1-.15.14-.15s.09,0,.09.1a1.76,1.76,0,0,1-.36.63c-.63.85-1.17,1.27-1.62,1.27s-.45-.22-.45-.65a4.51,4.51,0,0,1,.23-1l1.08-3.53h-.69c-.18,0-.28,0-.28-.09s.11-.22.33-.22h.73l.4-1.3c0-.09.18-.13.42-.13s.39,0,.39.11a1.18,1.18,0,0,1-.07.31l-.32,1h.92c.17,0,.26,0,.26.07s-.11.24-.32.24Z"/><path class="cls-3" d="M100.91,28.72l-1,2.44a2.83,2.83,0,0,0-.25.92.61.61,0,0,0,.18.45.6.6,0,0,0,.45.18c.67,0,1.36-.47,2.1-1.41a4.11,4.11,0,0,0,1-2.39.89.89,0,0,0-.15-.5,1.14,1.14,0,0,1-.22-.59.63.63,0,0,1,.11-.36.36.36,0,0,1,.29-.17.45.45,0,0,1,.4.32,1.49,1.49,0,0,1,.1.55,5.36,5.36,0,0,1-1.26,3.15A3.64,3.64,0,0,1,100,33.12c-.73,0-1.1-.35-1.1-1a3.73,3.73,0,0,1,.34-1.19l.87-2.16a2.51,2.51,0,0,0,.18-.54c0-.12,0-.18-.16-.18s-.34.14-.61.41A3.89,3.89,0,0,0,99,29c0,.07-.1.11-.15.11s-.07,0-.07-.1a.76.76,0,0,1,.16-.29,4.17,4.17,0,0,1,.8-.84,1.8,1.8,0,0,1,1-.48c.28,0,.42.14.42.44A2.43,2.43,0,0,1,100.91,28.72Z"/><path class="cls-3" d="M109.69,29.77a3.11,3.11,0,0,1-1,2.24,3.35,3.35,0,0,1-2.39,1.11,1.84,1.84,0,0,1-1.5-.74,2.56,2.56,0,0,1-.53-1.64,3.26,3.26,0,0,1,1-2.3,3.06,3.06,0,0,1,2.27-1,1.94,1.94,0,0,1,1.55.73A2.44,2.44,0,0,1,109.69,29.77Zm-.84-.54c0-1.05-.41-1.58-1.22-1.58a2.13,2.13,0,0,0-1.85,1.24,4.42,4.42,0,0,0-.62,2.26c0,1.13.42,1.7,1.25,1.7a2.12,2.12,0,0,0,1.81-1.33A4.63,4.63,0,0,0,108.85,29.23Z"/><path class="cls-3" d="M109.54,34.86l.12-.07a2.87,2.87,0,0,0,.71-.66,1.48,1.48,0,0,0,.41-.86c0-.13-.06-.2-.16-.2h-.11a.28.28,0,0,1-.12,0q-.33,0-.33-.42a.65.65,0,0,1,.65-.65c.35,0,.53.23.53.69a2.56,2.56,0,0,1-.95,1.85c-.35.33-.62.5-.79.5s-.09,0-.09-.07S109.45,34.93,109.54,34.86Z"/><path class="cls-3" d="M120.55,27.6h1.28c.19,0,.28,0,.28.07a1,1,0,0,1,0,.12c0,.09-.07.15-.11.16h-1a2,2,0,0,1,.6,1.38,1.94,1.94,0,0,1-.63,1.39,2.38,2.38,0,0,1-1.78.71,1.71,1.71,0,0,1-1.29-.49.65.65,0,0,0-.36.52c0,.27.31.49.94.68l.21.06a15.51,15.51,0,0,1,1.52.52c.7.35,1,.77,1,1.27a1.56,1.56,0,0,1-.87,1.29,3.56,3.56,0,0,1-1.88.46,4.54,4.54,0,0,1-1.79-.36c-.72-.32-1.09-.73-1.09-1.25a1.14,1.14,0,0,1,.81-1,13.15,13.15,0,0,1,1.4-.42c-.54-.21-.81-.51-.81-.91s.23-.61.7-1a1.9,1.9,0,0,1-.53-1.33A1.84,1.84,0,0,1,117.9,28a2.51,2.51,0,0,1,1.6-.55A5.29,5.29,0,0,1,120.55,27.6Zm-1.8,5.4-.65-.2a4.4,4.4,0,0,0-1.13.4,1,1,0,0,0-.61.91,1.21,1.21,0,0,0,.78,1.1,3.08,3.08,0,0,0,1.43.32,2.59,2.59,0,0,0,1.22-.29,1.07,1.07,0,0,0,.66-1,.9.9,0,0,0-.52-.81A6.12,6.12,0,0,0,118.75,33Zm2-4.18a1.32,1.32,0,0,0-.27-.86,1,1,0,0,0-.8-.35,1.48,1.48,0,0,0-1.25.83,2.76,2.76,0,0,0-.45,1.49,1.42,1.42,0,0,0,.27.88,1,1,0,0,0,.8.4,1.49,1.49,0,0,0,1.25-.86A2.94,2.94,0,0,0,120.72,28.82Z"/><path class="cls-3" d="M123,32.47,124.06,29a2.66,2.66,0,0,0,.15-.7c0-.17,0-.26-.16-.26s-.53.27-.9.81L123,29q-.12.18-.18.18c-.06,0-.08,0-.08-.08s.2-.45.61-.91.87-.79,1.22-.79.45.24.45.71a3,3,0,0,1-.18.83l-.52,1.71c.61-1.09,1-1.73,1.12-1.93.6-.88,1.12-1.32,1.57-1.32a.53.53,0,0,1,.6.6.8.8,0,0,1-.14.48.47.47,0,0,1-.41.24.39.39,0,0,1-.41-.3c0-.2-.12-.29-.19-.29-.25,0-.65.43-1.2,1.31a13,13,0,0,0-1.47,3,1.71,1.71,0,0,1-.16.44c0,.07-.19.11-.42.11s-.34-.06-.34-.16A1.86,1.86,0,0,1,123,32.47Z"/><path class="cls-3" d="M132.41,27.83l0-.11a1.42,1.42,0,0,1,.15-.35.54.54,0,0,1,.35-.08c.25,0,.33,0,.23,0,.12,0,.18.05.18.13a1.8,1.8,0,0,1-.06.24l-1.25,4.1a2.65,2.65,0,0,0-.1.4c0,.12,0,.18.13.18s.32-.13.57-.41a3.52,3.52,0,0,0,.45-.58c.08-.14.15-.22.2-.22s.09,0,.09.1-.22.54-.64,1a2.24,2.24,0,0,1-1.45.91q-.33,0-.33-.36a2.89,2.89,0,0,1,.13-.68l.74-2.4a13,13,0,0,1-1.59,2.13,3.28,3.28,0,0,1-2.15,1.31.84.84,0,0,1-.73-.41,1.55,1.55,0,0,1-.23-.84,3.66,3.66,0,0,1,.44-1.61,5.67,5.67,0,0,1,1-1.38,4.09,4.09,0,0,1,2.94-1.47A1.09,1.09,0,0,1,132.41,27.83Zm-.17.44q0-.63-.78-.63a3.1,3.1,0,0,0-2.26,1.52,6.15,6.15,0,0,0-.73,1.22,3.4,3.4,0,0,0-.38,1.35,1,1,0,0,0,.13.5.5.5,0,0,0,.43.24q.79,0,2.25-1.83a13.12,13.12,0,0,0,.79-1.13A3.16,3.16,0,0,0,132.24,28.27Z"/><path class="cls-3" d="M136.6,27.9,135.06,33l-.3.9a4.49,4.49,0,0,1-.42.85,2,2,0,0,1-1.72,1,1.54,1.54,0,0,1-.73-.17.66.66,0,0,1-.37-.61.48.48,0,0,1,.15-.36.51.51,0,0,1,.37-.15c.37,0,.54.24.52.72,0,.24.07.36.23.36.34,0,.65-.35,1-1.06,0-.13.2-.61.46-1.45l1.56-5.13h-.66c-.19,0-.28,0-.28-.08s.11-.23.34-.23h.71l0-.21a5,5,0,0,1,1-2,3.23,3.23,0,0,1,.83-.6,2.2,2.2,0,0,1,1-.28c.59,0,.88.23.88.7a.46.46,0,0,1-.52.53.41.41,0,0,1-.42-.22c0-.15-.08-.29-.11-.43s-.17-.26-.3-.26c-.46,0-.9.68-1.32,2l-.23.74h.92c.19,0,.28,0,.28.08a.54.54,0,0,1,0,.18s-.13,0-.28,0Z"/><path class="cls-3" d="M138.5,31.56l.87-2.82a1.59,1.59,0,0,0,.1-.41c0-.14-.05-.22-.15-.22s-.39.18-.72.54a5.19,5.19,0,0,1-.53.53s-.07,0-.07-.1.2-.4.59-.78c.61-.6,1.08-.89,1.44-.89s.37.15.37.45a4.33,4.33,0,0,1-.2.88l-.9,2.92a2.19,2.19,0,0,0-.11.48c0,.15.05.22.16.22s.32-.15.59-.46a3.56,3.56,0,0,0,.47-.65c.07-.1.12-.15.17-.15a.07.07,0,0,1,.08.08,2,2,0,0,1-.51.86c-.57.72-1.06,1.08-1.48,1.08-.25,0-.38-.17-.38-.49A4.15,4.15,0,0,1,138.5,31.56Zm2.56-5.73a.84.84,0,0,1-.19.52.55.55,0,0,1-.46.28c-.25,0-.37-.15-.37-.45a.83.83,0,0,1,.18-.5.53.53,0,0,1,.44-.28C140.92,25.4,141.06,25.55,141.06,25.83Z"/><path class="cls-3" d="M142.83,30.8l-.6,1.61-.14.42c-.06.09-.19.14-.4.14s-.4,0-.4-.12a1.34,1.34,0,0,1,.07-.3l2-6.45a3.3,3.3,0,0,0,.15-.69c0-.2-.17-.3-.53-.32-.15,0-.22-.05-.22-.13s.09-.11.28-.11a2.65,2.65,0,0,0,1.39-.31l.13,0c.06,0,.09,0,.09.08a2.81,2.81,0,0,1-.11.36l-1.6,5.25a7.92,7.92,0,0,1,1.33-1.76,2.77,2.77,0,0,1,1.82-1,1,1,0,0,1,.73.32,1.08,1.08,0,0,1,.29.74,2,2,0,0,1-1.14,1.67,6.41,6.41,0,0,1-2.13.59,1.86,1.86,0,0,1,.81,1,6,6,0,0,0,.37.7.78.78,0,0,0,.63.4.56.56,0,0,0,.37-.13.4.4,0,0,0,.15-.33c0-.12-.08-.23-.26-.33a.41.41,0,0,1-.26-.34c0-.22.1-.32.31-.32.37,0,.55.22.55.66a1,1,0,0,1-.38.8,1.27,1.27,0,0,1-.86.3,1.37,1.37,0,0,1-1.11-.57,5.45,5.45,0,0,1-.62-1.15c-.18-.4-.38-.6-.61-.6Zm.11-.21h.29a3.71,3.71,0,0,0,1.92-.56,1.83,1.83,0,0,0,1.08-1.57.49.49,0,0,0-.54-.56c-.45,0-1,.35-1.58,1A8.05,8.05,0,0,0,142.94,30.59Z"/><path class="cls-3" d="M152.55,29.77a3.08,3.08,0,0,1-1,2.24,3.33,3.33,0,0,1-2.38,1.11,1.84,1.84,0,0,1-1.51-.74,2.62,2.62,0,0,1-.53-1.64,3.23,3.23,0,0,1,1-2.3,3.06,3.06,0,0,1,2.27-1,1.92,1.92,0,0,1,1.54.73A2.4,2.4,0,0,1,152.55,29.77Zm-.84-.54c0-1.05-.41-1.58-1.23-1.58a2.14,2.14,0,0,0-1.85,1.24,4.41,4.41,0,0,0-.61,2.26c0,1.13.42,1.7,1.25,1.7a2.13,2.13,0,0,0,1.81-1.33A4.63,4.63,0,0,0,151.71,29.23Z"/><path class="cls-3" d="M157.25,31.56l.86-2.82a1.59,1.59,0,0,0,.1-.41c0-.14-.05-.22-.14-.22s-.4.18-.73.54a6,6,0,0,1-.52.53s-.08,0-.08-.1.2-.4.6-.78a2.45,2.45,0,0,1,1.43-.89c.25,0,.38.15.38.45a3.94,3.94,0,0,1-.21.88l-.9,2.92a2,2,0,0,0-.1.48c0,.15.05.22.15.22s.33-.15.6-.46a4.12,4.12,0,0,0,.47-.65c.06-.1.12-.15.17-.15s.07,0,.07.08a2,2,0,0,1-.51.86c-.56.72-1.06,1.08-1.48,1.08-.25,0-.37-.17-.37-.49A4.15,4.15,0,0,1,157.25,31.56Zm2.55-5.73a.89.89,0,0,1-.18.52.56.56,0,0,1-.46.28c-.25,0-.38-.15-.38-.45a.83.83,0,0,1,.18-.5.54.54,0,0,1,.44-.28C159.67,25.4,159.8,25.55,159.8,25.83Z"/><path class="cls-3" d="M166.28,29l-1,2.6a2.49,2.49,0,0,0-.18.62.21.21,0,0,0,.23.24c.17,0,.41-.15.7-.46a5.3,5.3,0,0,0,.58-.69c0-.08.08-.12.14-.12s.09,0,.09.08-.19.42-.55.81c-.65.71-1.16,1.07-1.54,1.07s-.53-.19-.53-.56a4.23,4.23,0,0,1,.33-1.3l.86-2.29a2.07,2.07,0,0,0,.18-.65.39.39,0,0,0-.43-.43c-.43,0-1,.45-1.78,1.34a9.46,9.46,0,0,0-1.08,1.59,9.31,9.31,0,0,0-.8,1.73.8.8,0,0,1-.14.34A.56.56,0,0,1,161,33h-.23q-.15,0-.15-.15a1.43,1.43,0,0,1,.07-.28L161.81,29a3,3,0,0,0,.14-.67c0-.19-.08-.29-.24-.29s-.35.15-.63.44a3,3,0,0,0-.5.63c0,.09-.08.13-.14.13s-.09,0-.09-.08a1.26,1.26,0,0,1,.23-.42,3.71,3.71,0,0,1,.29-.37c.54-.65,1-1,1.45-1s.49.19.49.59a3.61,3.61,0,0,1-.2,1.07l-.53,1.66,0,0a11,11,0,0,1,1.49-2.14,3.09,3.09,0,0,1,2.16-1.21c.5,0,.75.22.75.68A2.74,2.74,0,0,1,166.28,29Z"/><path class="cls-3" d="M176.41,29.77a3.07,3.07,0,0,1-1,2.24,3.33,3.33,0,0,1-2.38,1.11,1.84,1.84,0,0,1-1.51-.74,2.62,2.62,0,0,1-.53-1.64,3.26,3.26,0,0,1,1-2.3,3.08,3.08,0,0,1,2.27-1,1.94,1.94,0,0,1,1.55.73A2.39,2.39,0,0,1,176.41,29.77Zm-.84-.54c0-1.05-.4-1.58-1.22-1.58a2.13,2.13,0,0,0-1.85,1.24,4.41,4.41,0,0,0-.61,2.26c0,1.13.41,1.7,1.25,1.7a2.11,2.11,0,0,0,1.8-1.33A4.63,4.63,0,0,0,175.57,29.23Z"/><path class="cls-3" d="M177.69,30.28,179,26.06a3.3,3.3,0,0,0,.14-.61c0-.19-.11-.28-.33-.28s-.43,0-.43-.12.13-.19.38-.19a2.34,2.34,0,0,0,1.25-.3.15.15,0,0,1,.12,0,.11.11,0,0,1,.12.12l-1.68,5.54a7.51,7.51,0,0,1,1.34-1.74,2.9,2.9,0,0,1,1.84-1,1.06,1.06,0,0,1,1,.52A2,2,0,0,1,183,29a4,4,0,0,1-1.23,2.82A3.72,3.72,0,0,1,179,33.12a1.85,1.85,0,0,1-1.15-.34,1.3,1.3,0,0,1-.46-1.07A6.1,6.1,0,0,1,177.69,30.28ZM182.06,29c0-.71-.23-1.07-.68-1.07s-1.31.56-2.14,1.66a4.78,4.78,0,0,0-1.19,2.51q0,.78.9.78a2.8,2.8,0,0,0,2.16-1.4A4.28,4.28,0,0,0,182.06,29Z"/><path class="cls-3" d="M183.55,31.57l1.67-5.47a2.57,2.57,0,0,0,.12-.5c0-.22-.16-.32-.47-.3h-.19c-.1,0-.15,0-.15-.13s.12-.14.36-.15a2.54,2.54,0,0,0,1.4-.46.27.27,0,0,1,.11,0c.07,0,.1,0,.1.11a1.45,1.45,0,0,1-.07.29l-2.08,6.77a2.73,2.73,0,0,0-.12.49c0,.14.06.21.17.21s.32-.16.58-.47a4.38,4.38,0,0,0,.48-.64c0-.11.11-.16.17-.16s.07,0,.07.09a1.92,1.92,0,0,1-.51.85c-.57.71-1.06,1.07-1.48,1.07-.26,0-.38-.16-.38-.48A3.92,3.92,0,0,1,183.55,31.57Z"/><path class="cls-3" d="M187.18,31.56l.86-2.82a1.59,1.59,0,0,0,.1-.41c0-.14,0-.22-.15-.22s-.39.18-.72.54a5.19,5.19,0,0,1-.53.53c-.05,0-.07,0-.07-.1s.2-.4.59-.78a2.49,2.49,0,0,1,1.44-.89c.25,0,.37.15.37.45a4.33,4.33,0,0,1-.2.88l-.9,2.92a2.19,2.19,0,0,0-.11.48c0,.15,0,.22.16.22s.33-.15.6-.46a4,4,0,0,0,.46-.65c.07-.1.12-.15.18-.15a.07.07,0,0,1,.07.08,2,2,0,0,1-.51.86c-.57.72-1.06,1.08-1.48,1.08-.25,0-.38-.17-.38-.49A3.85,3.85,0,0,1,187.18,31.56Zm2.55-5.73a.89.89,0,0,1-.18.52.57.57,0,0,1-.47.28c-.25,0-.37-.15-.37-.45a.83.83,0,0,1,.18-.5.53.53,0,0,1,.44-.28C189.6,25.4,189.73,25.55,189.73,25.83Z"/><path class="cls-3" d="M191.5,30.8l-.6,1.61c0,.1-.08.24-.14.42s-.19.14-.4.14-.4,0-.4-.12a1.34,1.34,0,0,1,.07-.3l2-6.45a3.3,3.3,0,0,0,.15-.69c0-.2-.17-.3-.53-.32-.15,0-.22-.05-.22-.13s.09-.11.28-.11a2.65,2.65,0,0,0,1.39-.31l.13,0c.06,0,.09,0,.09.08s0,.15-.1.36l-1.6,5.25a7.58,7.58,0,0,1,1.32-1.76,2.77,2.77,0,0,1,1.82-1,.94.94,0,0,1,.73.32,1.08,1.08,0,0,1,.29.74,2,2,0,0,1-1.14,1.67,6.41,6.41,0,0,1-2.12.59,1.85,1.85,0,0,1,.8,1,6,6,0,0,0,.37.7.78.78,0,0,0,.63.4.56.56,0,0,0,.37-.13.41.41,0,0,0,.16-.33c0-.12-.09-.23-.26-.33s-.27-.21-.27-.34.1-.32.31-.32c.37,0,.55.22.55.66a1,1,0,0,1-.38.8,1.27,1.27,0,0,1-.86.3,1.37,1.37,0,0,1-1.11-.57,5.45,5.45,0,0,1-.62-1.15c-.18-.4-.38-.6-.61-.6Zm.11-.21h.29a3.77,3.77,0,0,0,1.93-.56,1.84,1.84,0,0,0,1.07-1.57c0-.37-.18-.56-.53-.56s-1,.35-1.59,1A8.05,8.05,0,0,0,191.61,30.59Z"/><path class="cls-3" d="M201.22,29.77a3.08,3.08,0,0,1-1,2.24,3.31,3.31,0,0,1-2.38,1.11,1.81,1.81,0,0,1-1.5-.74,2.57,2.57,0,0,1-.54-1.64,3.23,3.23,0,0,1,1-2.3,3.06,3.06,0,0,1,2.27-1,2,2,0,0,1,1.55.73A2.44,2.44,0,0,1,201.22,29.77Zm-.84-.54c0-1.05-.41-1.58-1.22-1.58a2.12,2.12,0,0,0-1.85,1.24,4.32,4.32,0,0,0-.62,2.26c0,1.13.42,1.7,1.25,1.7a2.13,2.13,0,0,0,1.81-1.33A4.63,4.63,0,0,0,200.38,29.23Z"/><path class="cls-3" d="M204.13,28.72l-1,2.44a2.59,2.59,0,0,0-.25.92.61.61,0,0,0,.18.45.57.57,0,0,0,.44.18,2.92,2.92,0,0,0,2.1-1.41,4.06,4.06,0,0,0,1-2.39.89.89,0,0,0-.15-.5,1.17,1.17,0,0,1-.23-.59.65.65,0,0,1,.12-.36.35.35,0,0,1,.29-.17c.17,0,.3.11.39.32a1.5,1.5,0,0,1,.11.55,5.36,5.36,0,0,1-1.26,3.15,3.64,3.64,0,0,1-2.77,1.81c-.74,0-1.1-.35-1.1-1a3.92,3.92,0,0,1,.33-1.19l.88-2.16a2.51,2.51,0,0,0,.18-.54c0-.12-.06-.18-.17-.18s-.33.14-.61.41a5.48,5.48,0,0,0-.51.6c0,.07-.09.11-.14.11s-.08,0-.08-.1a1,1,0,0,1,.16-.29,4.54,4.54,0,0,1,.81-.84,1.78,1.78,0,0,1,1-.48c.29,0,.43.14.43.44A2.66,2.66,0,0,1,204.13,28.72Z"/><path class="cls-3" d="M212.4,27.83l0-.11a1.42,1.42,0,0,1,.15-.35.54.54,0,0,1,.35-.08c.25,0,.33,0,.23,0,.12,0,.18.05.18.13a1.8,1.8,0,0,1-.06.24L212,31.74a2.65,2.65,0,0,0-.1.4c0,.12,0,.18.13.18s.32-.13.57-.41a3.52,3.52,0,0,0,.45-.58c.08-.14.15-.22.2-.22s.09,0,.09.1-.22.54-.64,1a2.24,2.24,0,0,1-1.45.91q-.33,0-.33-.36a2.89,2.89,0,0,1,.13-.68l.74-2.4a13,13,0,0,1-1.59,2.13,3.28,3.28,0,0,1-2.15,1.31.84.84,0,0,1-.73-.41,1.55,1.55,0,0,1-.22-.84,3.63,3.63,0,0,1,.43-1.61,5.67,5.67,0,0,1,1-1.38,4.09,4.09,0,0,1,2.94-1.47A1.09,1.09,0,0,1,212.4,27.83Zm-.17.44q0-.63-.78-.63a3.1,3.1,0,0,0-2.26,1.52,6.15,6.15,0,0,0-.73,1.22,3.4,3.4,0,0,0-.38,1.35,1,1,0,0,0,.13.5.5.5,0,0,0,.43.24q.8,0,2.25-1.83a13.12,13.12,0,0,0,.79-1.13A3.16,3.16,0,0,0,212.23,28.27Z"/><path class="cls-3" d="M220.27,29l-1,2.6a2.49,2.49,0,0,0-.18.62.21.21,0,0,0,.23.24c.17,0,.4-.15.7-.46a5.3,5.3,0,0,0,.58-.69c0-.08.08-.12.14-.12s.09,0,.09.08-.19.42-.55.81c-.65.71-1.16,1.07-1.55,1.07s-.52-.19-.52-.56a4.23,4.23,0,0,1,.33-1.3l.86-2.29a2.07,2.07,0,0,0,.18-.65.39.39,0,0,0-.43-.43c-.44,0-1,.45-1.78,1.34a9.46,9.46,0,0,0-1.08,1.59,9.31,9.31,0,0,0-.8,1.73.8.8,0,0,1-.14.34A.56.56,0,0,1,215,33h-.23q-.15,0-.15-.15a1.43,1.43,0,0,1,.07-.28L215.8,29a3,3,0,0,0,.14-.67c0-.19-.08-.29-.24-.29s-.35.15-.63.44a3,3,0,0,0-.5.63c0,.09-.08.13-.14.13s-.09,0-.09-.08a1.08,1.08,0,0,1,.23-.42,3.71,3.71,0,0,1,.29-.37c.54-.65,1-1,1.45-1s.49.19.49.59a4,4,0,0,1-.2,1.07l-.53,1.66,0,0a11,11,0,0,1,1.49-2.14,3.09,3.09,0,0,1,2.16-1.21c.5,0,.75.22.75.68A2.74,2.74,0,0,1,220.27,29Z"/><path class="cls-3" d="M224.07,28.73l-1.38,4.56a4.69,4.69,0,0,1-.95,1.9,2,2,0,0,1-1.46.64,1.33,1.33,0,0,1-.61-.13.52.52,0,0,1-.32-.47.41.41,0,0,1,.12-.3.37.37,0,0,1,.29-.13c.14,0,.3.13.47.38s.34.37.49.37a.55.55,0,0,0,.51-.35,3.41,3.41,0,0,0,.23-.63l1.78-5.84a2.24,2.24,0,0,0,.11-.4c0-.14,0-.22-.14-.22s-.39.18-.73.53a6,6,0,0,1-.52.53c-.06,0-.09,0-.09-.1s.2-.39.61-.77c.63-.6,1.1-.89,1.42-.89s.38.15.38.45A4.31,4.31,0,0,1,224.07,28.73Zm.86-2.9a1,1,0,0,1-.17.53.56.56,0,0,1-.46.27c-.25,0-.38-.15-.38-.46a.83.83,0,0,1,.18-.5.55.55,0,0,1,.45-.27C224.8,25.4,224.93,25.55,224.93,25.83Z"/><path class="cls-3" d="M225.72,30.72l0,.18v.28a1.46,1.46,0,0,0,.33,1,1.19,1.19,0,0,0,1,.39,2.12,2.12,0,0,0,1.07-.34,3,3,0,0,0,.84-.77.17.17,0,0,1,.13-.09c.06,0,.09,0,.09.08s-.11.24-.32.48a3.08,3.08,0,0,1-2.29,1.18,1.63,1.63,0,0,1-1.3-.57,2,2,0,0,1-.45-1.34,3.67,3.67,0,0,1,1.15-2.62,3.47,3.47,0,0,1,2.56-1.18,1.56,1.56,0,0,1,1,.29,1,1,0,0,1,.45.86c0,.75-.51,1.3-1.52,1.65a17.67,17.67,0,0,1-2.48.49Zm.05-.24c1.46-.12,2.41-.46,2.84-1a1.85,1.85,0,0,0,.41-1.13.62.62,0,0,0-.71-.69,2.13,2.13,0,0,0-1.67,1A4.78,4.78,0,0,0,225.77,30.48Z"/></g></g></svg>